<?xml version="1.0" encoding="utf-8"?>
<!-- Generator: Adobe Illustrator 19.1.0, SVG Export Plug-In . SVG Version: 6.00 Build 0)  -->
<svg version="1.1" id="Layer_1" xmlns="http://www.w3.org/2000/svg" xmlns:xlink="http://www.w3.org/1999/xlink" x="0px" y="0px"
	 width="50px" height="50px" viewBox="0 0 50 50" enable-background="new 0 0 50 50" xml:space="preserve">
<g>
	<g>
		<path fill="#1E1E1E" d="M4.6,25l1.9,1.9c0.1,0.1,0.2,0.3,0.2,0.5c0,0.4-0.3,0.7-0.7,0.7c-0.2,0-0.4-0.1-0.5-0.2l-1.6-1.6L2.4,28
			c-0.1,0.1-0.3,0.2-0.5,0.2c-0.4,0-0.7-0.3-0.7-0.7c0-0.2,0.1-0.4,0.2-0.5l1.9-1.9l0-0.8l-1.4,0c-0.4,0-0.7-0.3-0.7-0.7
			c0-0.4,0.3-0.7,0.7-0.7L6,22.8c0.4,0,0.7,0.3,0.7,0.7c0,0.4-0.3,0.7-0.7,0.7l-1.4,0L4.6,25z"/>
		<path fill="#1E1E1E" d="M5.5,33.5c0.7-0.4,1.4-0.5,2.1-0.3c0.7,0.2,1.3,0.6,1.7,1.3c0.4,0.7,0.5,1.4,0.3,2.1
			C9.5,37.4,9,38,8.4,38.4c-0.7,0.4-1.4,0.5-2.1,0.3c-0.7-0.2-1.3-0.6-1.7-1.3C4.1,36.7,4,36,4.2,35.3C4.4,34.5,4.8,33.9,5.5,33.5z
			 M6.2,34.7c-0.3,0.2-0.5,0.5-0.6,0.9c-0.1,0.4,0,0.7,0.2,1.1s0.5,0.5,0.9,0.6c0.4,0.1,0.7,0,1.1-0.2C8,37,8.2,36.7,8.3,36.3
			s0-0.7-0.2-1.1c-0.2-0.3-0.5-0.5-0.9-0.6S6.5,34.5,6.2,34.7z"/>
		<path fill="#1E1E1E" d="M13.6,40.5c0.2-0.3,0.6-0.4,1-0.3l1.8,1.1c0.5,0.3,0.8,0.7,0.9,1.2c0.1,0.5,0.1,1-0.2,1.5
			c-0.3,0.5-0.6,0.8-1.2,0.9c-0.5,0.1-1,0.1-1.5-0.2l-1.2-0.7l-0.5,0.9c-0.2,0.3-0.6,0.4-1,0.3c-0.3-0.2-0.4-0.6-0.3-1L13.6,40.5z
			 M14.5,41.8l-0.5,0.9l1.2,0.7c0.2,0.1,0.6,0,0.7-0.2c0.1-0.2,0.1-0.6-0.2-0.7L14.5,41.8z"/>
		<path fill="#1E1E1E" d="M24,47c-0.4,0-0.7-0.3-0.7-0.7c0-0.4,0.3-0.7,0.7-0.7l0.5,0c0.6,0,0.9-0.1,0.9-0.3c0-0.2-0.3-0.4-1-0.4
			c-0.4,0-0.9,0.1-1.3,0.2c-0.4,0.1-0.8-0.1-0.9-0.5c-0.1-0.4,0.1-0.8,0.5-0.9c0.5-0.2,1.1-0.3,1.7-0.3c0.7,0,1.3,0.2,1.7,0.5
			c0.4,0.3,0.6,0.8,0.6,1.3c0,0.4-0.2,0.8-0.4,1c0.3,0.3,0.4,0.7,0.4,1.1c0,0.5-0.3,1-0.7,1.3s-1,0.4-1.8,0.4
			c-0.7,0-1.2-0.2-1.7-0.4c-0.4-0.1-0.5-0.6-0.4-0.9c0.1-0.4,0.6-0.5,0.9-0.4c0.4,0.2,0.8,0.3,1.2,0.3c0.7,0,1-0.1,1-0.3
			c0-0.2-0.3-0.4-1-0.4L24,47z"/>
		<path fill="#1E1E1E" d="M38.4,44.5c0.2,0.3,0,0.8-0.3,0.9c-0.3,0.2-0.8,0-0.9-0.3L36,42.9l-1.3,4c-0.1,0.2-0.2,0.3-0.3,0.4
			c-0.3,0.2-0.8,0-0.9-0.3l-1.9-3.7c-0.2-0.3,0-0.8,0.3-0.9c0.3-0.2,0.8,0,0.9,0.3l1.2,2.2l1.3-4c0.1-0.2,0.2-0.3,0.3-0.4
			c0.3-0.2,0.8,0,0.9,0.3L38.4,44.5z"/>
		<path fill="#1E1E1E" d="M40,37.5c-0.3-0.2-0.4-0.6-0.2-1c0.2-0.3,0.6-0.4,1-0.2l1.2,0.7l1.3-2.1l-1.2-0.7c-0.3-0.2-0.4-0.6-0.2-1
			c0.2-0.3,0.6-0.4,1-0.2l3.6,2.2c0.3,0.2,0.4,0.6,0.2,1c-0.2,0.3-0.6,0.4-1,0.2l-1.2-0.7l-1.3,2.1l1.2,0.7c0.3,0.2,0.4,0.6,0.2,1
			c-0.2,0.3-0.6,0.4-1,0.2L40,37.5z"/>
		<path fill="#1E1E1E" d="M44,26.2c-0.2-0.1-0.3-0.4-0.3-0.6s0.1-0.5,0.4-0.6l4.3-2.3c0.1-0.1,0.2-0.1,0.3-0.1
			c0.4,0,0.7,0.3,0.7,0.7c0,0.3-0.1,0.5-0.4,0.6l-0.7,0.4l-0.1,2.8l0.7,0.4c0.3,0.2,0.4,0.4,0.4,0.6c0,0.4-0.3,0.7-0.7,0.7
			c-0.1,0-0.2,0-0.3-0.1L44,26.2z M45.7,25.6l1,0.6l0-1.2L45.7,25.6z"/>
	</g>
	<path fill="#1E1E1E" d="M34.6,19.8h-16c0,0-0.1,0-0.1,0c0,0-0.1,0-0.1,0c0,0-0.1,0-0.1,0c-0.1,0-0.1,0-0.2,0.1
		c-0.1,0-0.1,0.1-0.2,0.1c0,0-0.1,0.1-0.1,0.1c0,0.1-0.1,0.1-0.1,0.2c0,0.1,0,0.1-0.1,0.2c0,0.1,0,0.1,0,0.2c0,0,0,0.1,0,0.1
		c0,0,0,0.1,0,0.1c0,0,0,0.1,0,0.1l1.8,8.4c0.1,0.5,0.5,0.8,1,0.8h1.9c-0.6,0-1,0.5-1,1c0,0.6,0.5,1,1,1c0.6,0,1-0.5,1-1
		c0-0.6-0.5-1-1-1h5.8c-0.6,0-1,0.5-1,1c0,0.6,0.5,1,1,1c0.6,0,1-0.5,1-1c0-0.6-0.5-1-1-1H30c0.5,0,0.9-0.3,1-0.8l1.6-7.6h2
		c0.6,0,1-0.5,1-1C35.7,20.3,35.2,19.8,34.6,19.8z M21.2,28.2l-1.3-6.3h10.6l-1.3,6.3H21.2z"/>
</g>
</svg>
