<?xml version="1.0" encoding="utf-8"?>
<!-- Generator: Adobe Illustrator 19.1.0, SVG Export Plug-In . SVG Version: 6.00 Build 0)  -->
<svg version="1.1" id="Layer_1" xmlns="http://www.w3.org/2000/svg" xmlns:xlink="http://www.w3.org/1999/xlink" x="0px" y="0px"
	 width="50px" height="50px" viewBox="0 0 50 50" enable-background="new 0 0 50 50" xml:space="preserve">
<g>
	<g>
		<path fill="#1E1E1E" d="M3.1,35.2c-0.2-0.3-0.1-0.8,0.3-1L7,32.2c0.3-0.2,0.8-0.1,1,0.3l1.4,2.5c0.2,0.4,0.3,0.9,0.1,1.3
			c-0.1,0.5-0.4,0.8-0.8,1c-0.3,0.2-0.7,0.3-1.1,0.2c-0.2,0.4-0.4,0.6-0.7,0.8c-0.4,0.2-0.9,0.3-1.3,0.2c-0.5-0.1-0.8-0.4-1.1-0.8
			L3.1,35.2z M5.3,34.8l-0.6,0.3l1,1.8c0.1,0.2,0.3,0.2,0.5,0.1c0.2-0.1,0.2-0.3,0.1-0.5L5.3,34.8z M7.1,33.7l-0.6,0.3l1,1.8
			C7.6,36.1,7.8,36.1,8,36c0.2-0.1,0.2-0.3,0.1-0.5L7.1,33.7z"/>
		<path fill="#1E1E1E" d="M11.7,41.8c0.4-0.7,1-1.1,1.7-1.3c0.7-0.2,1.5-0.1,2.1,0.3c0.7,0.4,1.1,1,1.3,1.7c0.2,0.7,0.1,1.5-0.3,2.1
			c-0.4,0.7-1,1.1-1.7,1.3c-0.7,0.2-1.5,0.1-2.1-0.3c-0.7-0.4-1.1-1-1.3-1.7C11.2,43.2,11.3,42.5,11.7,41.8z M12.9,42.5
			c-0.2,0.3-0.2,0.7-0.2,1.1c0.1,0.4,0.3,0.7,0.6,0.9c0.3,0.2,0.7,0.2,1.1,0.2c0.4-0.1,0.7-0.3,0.9-0.6s0.2-0.7,0.2-1.1
			s-0.3-0.7-0.6-0.9c-0.3-0.2-0.7-0.2-1.1-0.2C13.4,42,13.1,42.2,12.9,42.5z"/>
		<path fill="#1E1E1E" d="M27.6,48.4c0,0.4-0.3,0.7-0.7,0.7c-0.4,0-0.7-0.3-0.7-0.7l0-2.5l-3.1,3C23.1,49,22.9,49,22.7,49
			c-0.4,0-0.7-0.3-0.7-0.7l0.1-4.2c0-0.4,0.3-0.7,0.7-0.7c0.4,0,0.7,0.3,0.7,0.7l0,2.5l3-3c0.1-0.1,0.3-0.2,0.5-0.2
			c0.4,0,0.7,0.3,0.7,0.7L27.6,48.4z M26,41.4c0.4,0,0.7,0.3,0.7,0.7c0,0.5-0.2,0.9-0.5,1.2c-0.3,0.3-0.8,0.5-1.2,0.5
			c-0.5,0-0.9-0.2-1.2-0.5s-0.5-0.8-0.5-1.2c0-0.4,0.3-0.7,0.7-0.7c0.4,0,0.7,0.3,0.7,0.7c0,0.2,0.1,0.4,0.3,0.4
			c0.2,0,0.4-0.1,0.4-0.3C25.3,41.7,25.6,41.4,26,41.4z"/>
		<path fill="#1E1E1E" d="M34.3,42.6l-1.2,0.7c-0.3,0.2-0.8,0.1-1-0.3c-0.2-0.3-0.1-0.8,0.3-1L36,40c0.3-0.2,0.8-0.1,1,0.3
			c0.2,0.3,0.1,0.8-0.3,1l-1.2,0.7l1.7,3c0.2,0.3,0.1,0.8-0.3,1s-0.8,0.1-1-0.3L34.3,42.6z"/>
		<path fill="#1E1E1E" d="M46.6,34.2c0.3,0.2,0.4,0.6,0.3,1c-0.2,0.3-0.6,0.4-1,0.3l-2.2-1.3l1.1,4.1c0,0.2,0,0.4-0.1,0.5
			c-0.2,0.3-0.6,0.4-1,0.3L40.2,37c-0.3-0.2-0.4-0.6-0.3-1s0.6-0.4,1-0.3l2.2,1.2L42,32.9c0-0.2,0-0.4,0.1-0.5
			c0.2-0.3,0.6-0.4,1-0.3L46.6,34.2z"/>
	</g>
	<g>
		<path fill="#1E1E1E" d="M33.4,18.9H26c-0.6,0-1,0.5-1,1c0,0.6,0.5,1,1,1h6.3v7.9h-6.8c-0.6,0-1,0.5-1,1c0,0.6,0.5,1,1,1h7.9
			c0.6,0,1-0.5,1-1v0l0,0V20C34.4,19.4,34,18.9,33.4,18.9z"/>
		<path fill="#1E1E1E" d="M25,24.9c0-0.3-0.1-0.5-0.3-0.7L22,21.5c-0.4-0.4-1.1-0.4-1.5,0c-0.4,0.4-0.4,1.1,0,1.5l0.9,0.9h-4.8
			c-0.6,0-1,0.5-1,1c0,0.6,0.5,1,1,1h4.8l-0.9,0.9c-0.4,0.4-0.4,1.1,0,1.5c0.4,0.4,1.1,0.4,1.5,0l2.7-2.7c0,0,0,0,0,0v0
			C24.9,25.5,25,25.2,25,24.9z"/>
	</g>
</g>
</svg>
