<?xml version="1.0"?>
<svg width="230" height="50" xmlns="http://www.w3.org/2000/svg" xmlns:svg="http://www.w3.org/2000/svg">
 <g>
  <title>Layer 1</title>
  <g id="svg_1">
   <path id="svg_2" d="m-10.2,-6.6l0,40.000001l249.100009,0l0,-40.000001l-249.100009,0zm235.800006,26.7l-222.400006,0l0,-13.3l222.399991,0l0,13.3l0.000015,0z" fill="none" opacity="0.1"/>
   <g id="svg_3">
    <g id="svg_4">
     <path id="svg_5" d="m14.5,8c-0.7,-0.8 -1.6,-1.2 -2.7,-1.2l-7.5,0c-0.6,0 -1.1,0.5 -1.1,1.1l0,11.1c0,0.6 0.5,1.1 1.1,1.1l7.5,0c1.099999,0 1.9,-0.4 2.7,-1.200001c0.7,-0.799999 1.1,-1.699999 1.1,-2.699999c0,-1.1 -0.400001,-2.000001 -1.200001,-2.800001c0.8,-0.799999 1.200001,-1.7 1.200001,-2.799999c0,-1 -0.400001,-1.900001 -1.1,-2.6zm-2.8,9.9l-6.3,0l0,-3.299999l6.4,0c0.9,0.099999 1.599999,0.799999 1.599999,1.699999c0,0.900002 -0.799999,1.6 -1.7,1.6zm0.1,-5.599999l-6.4,0l0,-3.3l6.3,0c0.900001,0 1.7,0.7 1.7,1.7c0,0.900001 -0.799999,1.6 -1.599999,1.6z" fill="#1E1E1E"/>
     <path id="svg_6" d="m64.300003,6.9c-0.500004,-0.3 -1.200005,-0.1 -1.500004,0.4l-3.299999,5.7l-4.900002,-5.9c-0.399998,-0.5 -1.099998,-0.5 -1.599998,-0.1c-0.5,0.4 -0.599998,1.1 -0.099998,1.6l5.399998,6.5l-0.799999,1.4c-0.299999,0.5 -0.400002,0.700001 -1,1.1c-0.299999,0.199999 -0.700001,0.299999 -1.099998,0.299999c-0.600002,0 -1.100002,0.5 -1.100002,1.1c0,0.6 0.5,1.1 1.100002,1.1c1.899998,0 3.099998,-0.9 4.099998,-2.700001l5.199997,-9c0.300003,-0.5 0.100006,-1.099999 -0.399994,-1.5z" fill="#1E1E1E"/>
     <path id="svg_7" d="m85.800003,16.6c-0.900002,0.9 -1.900002,1.299999 -3.100006,1.299999c-1.199997,0 -2.299995,-0.4 -3.099998,-1.299999c-0.900002,-0.900001 -1.299995,-1.900001 -1.299995,-3.1c0,-1.2 0.399994,-2.3 1.299995,-3.1c0.800003,-1 1.800003,-1.4 3.099998,-1.4c1.200005,0 2.300003,0.4 3.100006,1.3c0.199997,0.2 0.5,0.3 0.799995,0.3c0.599998,0 1.099998,-0.5 1.099998,-1.1c0,-0.3 -0.099998,-0.6 -0.5,-0.9c-1.299995,-1.2 -2.899994,-1.900001 -4.599998,-1.900001c-1.799995,0 -3.400002,0.6 -4.699997,2c-1.300003,1.3 -1.900002,2.900001 -1.900002,4.7c0,1.8 0.599998,3.4 1.900002,4.700001c1.299995,1.299999 2.900002,1.9 4.699997,1.9c1.800003,0 3.400002,-0.6 4.700005,-1.9c0.399994,-0.4 0.399994,-1.1 0,-1.6c-0.400002,-0.4 -1.100006,-0.4 -1.5,0.1z" fill="#1E1E1E"/>
     <path id="svg_8" d="m37.400002,14.6l0,0c-0.400002,-0.400001 -0.900002,-0.8 -1.5,-1.200001c0.5,-0.299999 1,-0.7 1.5,-1.2l0,0l3.599998,-3.599999c0.200001,-0.200001 0.299999,-0.5 0.299999,-0.8c0.100002,-1 -1.299999,-1.5 -1.899998,-0.8l-3.600002,3.6l0,0c-0.899998,1 -2.299999,1.599999 -3.700001,1.7c0,0 -1.199999,0 -1.199999,0l0,-4.4c0,-0.6 -0.5,-1.1 -1.1,-1.1c-0.599998,0 -1.099998,0.5 -1.099998,1.1l0,11.1c0,0.6 0.5,1.1 1.099998,1.1c0.6,0 1.1,-0.5 1.1,-1.1l0,-4.4c0,0 1.1,0 1.1,0c1.5,0 2.799999,0.7 3.700001,1.699999l0,0l3.599998,3.6c0.600002,0.700001 1.900002,0.200001 1.900002,-0.799999c0,-0.300001 -0.100002,-0.5 -0.299999,-0.800001l-3.5,-3.699999z" fill="#1E1E1E"/>
     <path id="svg_9" d="m179.100006,8c-0.699997,-0.8 -1.599991,-1.2 -2.699997,-1.2l-7.5,0c-0.600006,0 -1.100006,0.5 -1.100006,1.1l0,11.1c0,0.6 0.5,1.1 1.100006,1.1l7.5,0c1.100006,0 1.899994,-0.4 2.699997,-1.200001c0.699997,-0.799999 1.100006,-1.699999 1.100006,-2.699999c0,-1.1 -0.400009,-2.000001 -1.199997,-2.800001c0.799988,-0.799999 1.199997,-1.7 1.199997,-2.799999c-0.000015,-1 -0.400009,-1.900001 -1.100006,-2.6zm-2.800003,9.9l-6.300003,0l0,-3.299999l6.399994,0c0.900009,0.099999 1.600006,0.799999 1.600006,1.699999c-0.100006,0.900002 -0.800003,1.6 -1.699997,1.6zm0,-5.599999l-6.300003,0l0,-3.3l6.300003,0c0.899994,0 1.699997,0.7 1.699997,1.7c-0.100006,0.900001 -0.800003,1.6 -1.699997,1.6z" fill="#1E1E1E"/>
     <path id="svg_10" d="m203.300003,9c0.599991,0 1.099991,-0.5 1.099991,-1.1c0,-0.6 -0.5,-1.1 -1.099991,-1.1l-9.300003,0c-0.600006,0 -1.100006,0.5 -1.100006,1.1l0,11.1c0,0.6 0.5,1.1 1.100006,1.1l9.300003,0c0.599991,0 1.099991,-0.5 1.099991,-1.1c0,-0.6 -0.5,-1.1 -1.099991,-1.1l-8.100006,0l0,-3.299999l6.300003,0c0.600006,0 1.100006,-0.5 1.100006,-1.1c0,-0.6 -0.5,-1.1 -1.100006,-1.1l-6.300003,0l0,-3.4l8.100006,0z" fill="#1E1E1E"/>
     <path id="svg_11" d="m225.600006,6.8l-11.099991,0c-0.600006,0 -1.100006,0.5 -1.100006,1.1c0,0.6 0.5,1.1 1.100006,1.1l4.399994,0l0,10c0,0.6 0.5,1.1 1.100006,1.1s1.099991,-0.5 1.099991,-1.1l0,-10l4.400009,0c0.599991,0 1.099991,-0.5 1.099991,-1.1c0.099991,-0.6 -0.400009,-1.1 -1,-1.1z" fill="#1E1E1E"/>
     <path id="svg_12" d="m156.600006,19c-0.699997,-0.700001 -1.699997,-1.1 -2.699997,-1.1l-0.399994,0l0,-10c0,-0.6 -0.5,-1.1 -1.100006,-1.1c-0.600006,0 -1.100006,0.5 -1.100006,1.1l0,10l-8,0l0,-10c0,-0.6 -0.5,-1.1 -1.099991,-1.1c-0.600006,0 -1.100006,0.5 -1.100006,1.1l0,11.1c0,0.6 0.5,1.1 1.100006,1.1l4.199997,0l0,0l2.199997,0l5.300003,0c0.800003,0.1 1.5,0.699999 1.600006,1.5l0,0c0,0.6 0.5,1.1 1.099991,1.1c0.600006,0 1.100006,-0.5 1.100006,-1c0,-1 -0.400009,-1.800001 -1,-2.5c-0.000015,-0.1 -0.100006,-0.1 -0.100006,-0.200001z" fill="#1E1E1E"/>
    </g>
    <path id="svg_13" d="m118.099998,12.7l0,0l-2.099998,0c0.199997,-0.3 0.199997,-0.7 0.199997,-1c0,-0.7 -0.199997,-1.2 -0.699997,-1.7c-0.5,-0.5 -1,-0.7 -1.699997,-0.7l-0.100006,0c-0.699997,0 -1.199997,0.3 -1.699997,0.7c-0.5,0.5 -0.699997,1 -0.699997,1.7c0,0.7 0.199997,1.2 0.699997,1.7l0,0c0,0 0,0 0,0c0,0 0,0 0,0c-0.5,0.5 -0.699997,1 -0.699997,1.700001c0,0.7 0.199997,1.199999 0.699997,1.699999c0.5,0.5 1,0.700001 1.699997,0.700001l1.300003,0c0.699997,0 1.199997,-0.200001 1.699997,-0.700001c0.5,-0.5 0.700005,-0.999999 0.700005,-1.699999l0,-1.1c0,0 0.599998,0 0.599998,0c0.400002,0 0.699997,-0.3 0.699997,-0.7c0.100006,-0.3 -0.199997,-0.6 -0.599998,-0.6zm-5,-0.3c-0.199997,-0.2 -0.299995,-0.4 -0.299995,-0.7c0,-0.599999 0.5,-1 1,-1c0.599998,0 1,0.5 1,1c0,0.6 -0.5,1 -1,1l0,0l-0.100006,0c-0.199997,0 -0.299995,0 -0.5,0.1c0.100006,-0.2 0,-0.3 -0.099998,-0.400001zm3,2.8c0,0.6 -0.5,1.000001 -1,1.000001l-1.199997,0l0,0c-0.599998,0 -1,-0.500001 -1,-1.000001c0,-0.599999 0.400002,-1 1,-1l2.299995,0l0,1l-0.099998,0z" fill="#1E1E1E"/>
   </g>
  </g>
 </g>
</svg>