<?xml version="1.0" encoding="utf-8"?>
<!-- Generator: Adobe Illustrator 19.1.0, SVG Export Plug-In . SVG Version: 6.00 Build 0)  -->
<svg version="1.1" id="Layer_1" xmlns="http://www.w3.org/2000/svg" xmlns:xlink="http://www.w3.org/1999/xlink" x="0px" y="0px"
	 width="50px" height="50px" viewBox="0 0 50 50" enable-background="new 0 0 50 50" xml:space="preserve">
<g>
	<g>
		<path fill="#1E1E1E" d="M10.8,40.3l-1.8-0.1c-0.2,0-0.4-0.1-0.5-0.2c-0.1-0.1-0.2-0.3-0.2-0.5l0.1-1.8l-1.8,1.7
			c-0.3,0.3-0.7,0.2-1,0c-0.3-0.3-0.2-0.7,0-1l3.1-2.8c0.3-0.3,0.7-0.2,1,0c0.1,0.1,0.2,0.3,0.2,0.5l-0.1,2.8l2.8,0.1
			c0.2,0,0.4,0.1,0.5,0.2c0.3,0.3,0.2,0.7,0,1l-3.1,2.8c-0.3,0.3-0.7,0.2-1,0c-0.3-0.3-0.2-0.7,0-1L10.8,40.3z"/>
		<path fill="#1E1E1E" d="M17.3,42.6c0.1-0.4,0.5-0.6,0.9-0.5l3.4,1c0.4,0.1,0.6,0.5,0.5,0.9s-0.5,0.6-0.9,0.5l-2.7-0.8l-0.2,0.7
			l2,0.6c0.4,0.1,0.6,0.5,0.5,0.9s-0.5,0.6-0.9,0.5l-2-0.6l-0.2,0.7l2.7,0.8c0.4,0.1,0.6,0.5,0.5,0.9s-0.5,0.6-0.9,0.5l-3.4-1
			c-0.4-0.1-0.6-0.5-0.5-0.9L17.3,42.6z"/>
		<path fill="#1E1E1E" d="M26.7,44.2c-0.1-0.4,0.2-0.8,0.5-0.8c0.4-0.1,0.8,0.2,0.8,0.5l0.3,1.4l2.4-0.5l-0.3-1.4
			c-0.1-0.4,0.2-0.8,0.5-0.8c0.4-0.1,0.8,0.2,0.8,0.5l0.9,4.1c0.1,0.4-0.2,0.8-0.5,0.8c-0.4,0.1-0.8-0.2-0.8-0.5l-0.3-1.4l-2.4,0.5
			L29,48c0.1,0.4-0.2,0.8-0.5,0.8c-0.4,0.1-0.8-0.2-0.8-0.5L26.7,44.2z"/>
		<path fill="#1E1E1E" d="M36.2,41c-0.3-0.3-0.3-0.7,0-1c0.3-0.3,0.7-0.3,1,0l1,1l0.5-0.6c-0.3-0.5-0.5-1.1-0.4-1.8
			c0.1-0.6,0.3-1.2,0.8-1.7c0.5-0.6,1.2-0.8,2-0.9c0.8,0,1.4,0.2,2,0.8c0.6,0.5,0.8,1.2,0.9,2c0,0.8-0.2,1.4-0.8,2
			c-0.5,0.5-1,0.7-1.6,0.8c-0.6,0.1-1.2,0-1.8-0.3l-0.5,0.6l1,1c0.3,0.3,0.3,0.7,0,1c-0.3,0.3-0.7,0.3-1,0L36.2,41z M40.1,39.9
			c0.3,0.3,0.6,0.4,1,0.4c0.4,0,0.7-0.2,1-0.4c0.3-0.3,0.4-0.6,0.4-1c0-0.4-0.1-0.7-0.4-1c-0.3-0.3-0.6-0.4-1-0.4
			c-0.4,0-0.7,0.1-1,0.4c-0.3,0.3-0.4,0.6-0.4,1C39.7,39.3,39.8,39.6,40.1,39.9L40.1,39.9z"/>
	</g>
	<g>
		<path fill="#1E1E1E" d="M33.4,19H16.6c-0.6,0-1,0.5-1,1c0,0.6,0.5,1,1,1h16.8c0.6,0,1-0.5,1-1C34.4,19.4,34,19,33.4,19z"/>
		<path fill="#1E1E1E" d="M33.4,24H16.6c-0.6,0-1,0.5-1,1c0,0.6,0.5,1,1,1h16.8c0.6,0,1-0.5,1-1C34.4,24.4,34,24,33.4,24z"/>
		<path fill="#1E1E1E" d="M33.4,28.9H16.6c-0.6,0-1,0.5-1,1c0,0.6,0.5,1,1,1h16.8c0.6,0,1-0.5,1-1C34.4,29.4,34,28.9,33.4,28.9z"/>
	</g>
</g>
</svg>
