<?xml version="1.0" encoding="utf-8"?>
<!-- Generator: Adobe Illustrator 19.1.0, SVG Export Plug-In . SVG Version: 6.00 Build 0)  -->
<svg version="1.1" id="Layer_1" xmlns="http://www.w3.org/2000/svg" xmlns:xlink="http://www.w3.org/1999/xlink" x="0px" y="0px"
	 width="50px" height="50px" viewBox="0 0 50 50" enable-background="new 0 0 50 50" xml:space="preserve">
<g>
	<g>
		<path fill="#1E1E1E" d="M7.2,32.5c0.3-0.2,0.8-0.1,1,0.2l2,3.3c0.2,0.3,0.1,0.8-0.2,1l-3.6,2.1c-0.3,0.2-0.8,0.1-1-0.2
			c-0.2-0.3-0.1-0.8,0.2-1l3-1.8l-1.2-2.1l-3,1.8c-0.3,0.2-0.8,0.1-1-0.2c-0.2-0.3-0.1-0.8,0.2-1L7.2,32.5z"/>
		<path fill="#1E1E1E" d="M12.1,42.2c0.4-0.7,0.9-1.1,1.7-1.3c0.7-0.2,1.5-0.1,2.1,0.3c0.7,0.4,1.1,0.9,1.3,1.7
			c0.2,0.7,0.1,1.5-0.3,2.1c-0.4,0.7-0.9,1.1-1.7,1.3c-0.7,0.2-1.5,0.1-2.1-0.3c-0.7-0.4-1.1-0.9-1.3-1.7
			C11.7,43.5,11.7,42.8,12.1,42.2z M13.4,42.9c-0.2,0.3-0.2,0.7-0.1,1.1c0.1,0.4,0.3,0.7,0.7,0.8s0.7,0.2,1.1,0.1
			c0.4-0.1,0.7-0.3,0.8-0.7c0.2-0.3,0.2-0.7,0.1-1.1c-0.1-0.4-0.3-0.7-0.7-0.8c-0.3-0.2-0.7-0.2-1.1-0.1
			C13.8,42.3,13.5,42.5,13.4,42.9z"/>
		<path fill="#1E1E1E" d="M28.2,48.4c0,0.4-0.3,0.7-0.7,0.7c-0.4,0-0.7-0.3-0.7-0.7l0-2.5l-3,3.1c-0.1,0.1-0.3,0.2-0.5,0.2
			c-0.4,0-0.7-0.3-0.7-0.7l-0.1-4.2c0-0.4,0.3-0.7,0.7-0.7c0.4,0,0.7,0.3,0.7,0.7l0,2.5l3-3.1c0.1-0.1,0.3-0.2,0.5-0.2
			c0.4,0,0.7,0.3,0.7,0.7L28.2,48.4z"/>
		<path fill="#1E1E1E" d="M37.8,43.1c0.3-0.2,0.8-0.1,1,0.2c0.1,0.2,0.1,0.3,0.1,0.5c-0.2,0.7-0.6,1.3-1.3,1.7s-1.4,0.5-2.1,0.3
			c-0.7-0.2-1.3-0.6-1.7-1.3c-0.4-0.7-0.5-1.4-0.3-2.1c0.2-0.7,0.6-1.3,1.3-1.7c0.7-0.4,1.4-0.5,2.1-0.3c0.2,0.1,0.3,0.2,0.4,0.3
			c0.2,0.3,0.1,0.8-0.2,1c-0.2,0.1-0.3,0.1-0.5,0.1c-0.4-0.1-0.7-0.1-1.1,0.1c-0.3,0.2-0.5,0.5-0.6,0.9c-0.1,0.4,0,0.7,0.1,1.1
			c0.2,0.3,0.5,0.5,0.9,0.6c0.4,0.1,0.7,0,1.1-0.1c0.3-0.2,0.5-0.5,0.6-0.9C37.5,43.4,37.6,43.2,37.8,43.1z"/>
		<path fill="#1E1E1E" d="M42.6,35.8l-0.7-2.6c0-0.2,0-0.4,0.1-0.5c0.2-0.3,0.6-0.4,1-0.3c0.2,0.1,0.3,0.2,0.3,0.4l0.6,2.2l2.2-0.6
			c0.2,0,0.4,0,0.5,0.1c0.3,0.2,0.4,0.6,0.2,1c-0.1,0.2-0.2,0.3-0.4,0.3l-2.6,0.7l-0.4,0.7l1.2,0.7c0.3,0.2,0.4,0.6,0.2,1
			c-0.2,0.3-0.6,0.4-1,0.2L40.3,37c-0.3-0.2-0.4-0.6-0.2-1c0.2-0.3,0.6-0.4,1-0.2l1.2,0.7L42.6,35.8z"/>
	</g>
	<path fill="#1E1E1E" d="M34.4,33.1l-4.3-4.3l0,0c0.8-1.1,1.3-2.4,1.3-3.8c0-3.5-2.8-6.3-6.3-6.3s-6.3,2.8-6.3,6.3
		c0,3.5,2.8,6.3,6.3,6.3c1.3,0,2.5-0.4,3.6-1.1v0l4.3,4.3c0.4,0.4,1.1,0.4,1.5,0C34.8,34.2,34.8,33.5,34.4,33.1z M25,29.3
		c-2.3,0-4.2-1.9-4.2-4.2c0-2.3,1.9-4.2,4.2-4.2c2.3,0,4.2,1.9,4.2,4.2C29.2,27.4,27.4,29.3,25,29.3z"/>
</g>
</svg>
