<?xml version="1.0" standalone="no"?>
<!DOCTYPE svg PUBLIC "-//W3C//DTD SVG 1.1//EN" "http://www.w3.org/Graphics/SVG/1.1/DTD/svg11.dtd" >
<svg xmlns="http://www.w3.org/2000/svg" xmlns:xlink="http://www.w3.org/1999/xlink" version="1.1">
<metadata>
Created by FontForge 20150318 at Mon Jun  8 07:29:39 2015
 By uniteet7
Copyright (c) 2010 by abstrkt. All rights reserved.
</metadata>
<defs>
<font id="FunCityLevel2Basic" horiz-adv-x="500" >
  <font-face 
    font-family="FunCityLevel2Basic"
    font-weight="400"
    font-stretch="normal"
    units-per-em="1000"
    panose-1="2 0 0 0 0 0 0 0 0 0"
    ascent="800"
    descent="-200"
    x-height="760"
    cap-height="760"
    bbox="60 -160 1510 1209.78"
    underline-thickness="50"
    underline-position="-50"
    unicode-range="U+0020-2122"
  />
<missing-glyph 
 />
    <glyph glyph-name=".notdef" 
 />
    <glyph glyph-name=".null" horiz-adv-x="0" 
 />
    <glyph glyph-name="nonmarkingreturn" horiz-adv-x="333" 
 />
    <glyph glyph-name="space" unicode=" " 
 />
    <glyph glyph-name="exclam" unicode="!" 
d="M190 400v300q0 25 17.5 42.5t42.5 17.5t42.5 -17.5t17.5 -42.5v-300q0 -25 -17.5 -42.5t-42.5 -17.5t-42.5 17.5t-17.5 42.5zM207 57q-17 18 -17 43t17 42q18 18 43 18t42 -18q18 -17 18 -42t-18 -43q-17 -17 -42 -17t-43 17z" />
    <glyph glyph-name="quotedbl" unicode="&#x22;" horiz-adv-x="750" 
d="M190 550v150q0 25 17.5 42.5t42.5 17.5t42.5 -17.5t17.5 -42.5v-150q0 -25 -17.5 -42.5t-42.5 -17.5t-42.5 17.5t-17.5 42.5zM440 550v150q0 25 17.5 42.5t42.5 17.5t42.5 -17.5t17.5 -42.5v-150q0 -25 -17.5 -42.5t-42.5 -17.5t-42.5 17.5t-17.5 42.5z" />
    <glyph glyph-name="numbersign" unicode="#" horiz-adv-x="1180" 
d="M392 490h-52q-25 0 -42.5 17.5t-17.5 42.5t17.5 42.5t42.5 17.5h120l68 120q13 21 36.5 27.5t45.5 -5.5q22 -13 28 -37t-6 -45l-34 -60h212l68 120q13 21 36.5 27.5t45.5 -5.5q22 -13 28 -37t-6 -45l-34 -60h42q25 0 42.5 -17.5t17.5 -42.5t-17.5 -42.5t-42.5 -17.5h-110
l-102 -180h62q25 0 42.5 -17.5t17.5 -42.5t-17.5 -42.5t-42.5 -17.5h-130l-68 -120q-13 -21 -36.5 -27.5t-45.5 5.5q-22 13 -28 37t6 45l34 60h-212l-68 -120q-13 -21 -36.5 -27.5t-45.5 5.5q-22 13 -28 37t6 45l34 60h-32q-25 0 -42.5 17.5t-17.5 42.5t17.5 42.5t42.5 17.5
h100zM742 490h-212l-102 -180h212z" />
    <glyph glyph-name="dollar" unicode="$" horiz-adv-x="950" 
d="M419 -50v91q-113 4 -203 43q-23 8 -34.5 31.5t-2.5 46.5q10 25 31.5 34.5t44.5 1.5q87 -34 164 -38v182q-116 11 -180.5 64.5t-64.5 143.5q0 85 66.5 140t178.5 67v93q0 25 17.5 42.5t42.5 17.5t42.5 -17.5t17.5 -42.5v-93q99 -10 173 -42q25 -11 35.5 -32t1.5 -44
q-21 -53 -75 -37q-74 29 -135 35v-180q115 -11 180 -64.5t65 -142.5q0 -86 -66 -140.5t-179 -66.5v-93q0 -25 -17.5 -42.5t-42.5 -17.5t-42.5 17.5t-17.5 42.5zM539 337v-174q125 14 125 87t-125 87zM419 463v174q-125 -14 -125 -87t125 -87z" />
    <glyph glyph-name="ampersand" unicode="&#x26;" horiz-adv-x="1049" 
d="M849 340h-90v-240q0 -25 -17.5 -42.5t-42.5 -17.5q-31 0 -47 22q-84 -22 -167 -22q-135 0 -221 56q-84 56 -84 154q0 93 79 150q-79 55 -79 150q0 98 84 154q86 56 221 56q129 0 233 -45q50 -23 37 -76q-7 -26 -28.5 -36t-46.5 -1q-94 38 -195 38q-185 0 -185 -90
t180 -90h369q25 0 42.5 -17.5t17.5 -42.5t-17.5 -42.5t-42.5 -17.5zM300 250q0 -90 185 -90q82 0 154 23v157h-167q-172 -4 -172 -90z" />
    <glyph glyph-name="quotesingle" unicode="'" 
d="M190 550v150q0 25 17.5 42.5t42.5 17.5t42.5 -17.5t17.5 -42.5v-150q0 -25 -17.5 -42.5t-42.5 -17.5t-42.5 17.5t-17.5 42.5z" />
    <glyph glyph-name="parenleft" unicode="(" horiz-adv-x="641" 
d="M452 -6q19 -16 19 -44q0 -25 -17.5 -42.5t-42.5 -17.5q-27 0 -47 21q-90 100 -142 225q-52 128 -52 264q0 135 53 265q54 130 145 227q28 28 65.5 12.5t37.5 -54.5q0 -28 -22 -47q-159 -169 -159 -403q0 -112 43 -218t119 -188z" />
    <glyph glyph-name="parenright" unicode=")" horiz-adv-x="641" 
d="M189 -6q76 82 119 188t43 218q0 234 -159 403q-22 19 -22 47q0 39 37 54.5t66 -12.5q92 -98 144 -227q54 -129 54 -265q0 -134 -53 -264q-52 -128 -141 -225q-19 -21 -47 -21q-25 0 -42.5 17.5t-17.5 42.5q0 28 19 44z" />
    <glyph glyph-name="asterisk" unicode="*" horiz-adv-x="910" 
d="M351 660l-60 105q-13 21 -6.5 45t27.5 37q22 12 46 5.5t36 -27.5l61 -106l61 106q12 21 36 27.5t45 -5.5q22 -13 28.5 -37t-6.5 -45q-20 -35 -61 -105h122q25 0 42.5 -17.5t17.5 -42.5t-17.5 -42.5t-42.5 -17.5h-122l61 -105q13 -21 6.5 -45t-28.5 -37q-21 -12 -45 -5.5
t-36 27.5l-61 106l-61 -106q-12 -21 -36 -27.5t-46 5.5q-21 13 -27.5 37t6.5 45l60 105h-121q-25 0 -42.5 17.5t-17.5 42.5t17.5 42.5t42.5 17.5h121z" />
    <glyph glyph-name="plus" unicode="+" horiz-adv-x="970" 
d="M425 340h-215q-25 0 -42.5 17.5t-17.5 42.5t17.5 42.5t42.5 17.5h215v215q0 25 17.5 42.5t42.5 17.5t42.5 -17.5t17.5 -42.5v-215h215q25 0 42.5 -17.5t17.5 -42.5t-17.5 -42.5t-42.5 -17.5h-215v-215q0 -25 -17.5 -42.5t-42.5 -17.5t-42.5 17.5t-17.5 42.5v215z" />
    <glyph glyph-name="comma" unicode="," horiz-adv-x="572" 
d="M175 -44l100 174q13 21 36.5 27.5t45.5 -5.5q22 -13 28 -37t-6 -45l-100 -174q-13 -21 -36.5 -27.5t-45.5 5.5q-22 13 -28 37t6 45z" />
    <glyph glyph-name="hyphen" unicode="-" horiz-adv-x="870" 
d="M660 340h-450q-25 0 -42.5 17.5t-17.5 42.5t17.5 42.5t42.5 17.5h450q25 0 42.5 -17.5t17.5 -42.5t-17.5 -42.5t-42.5 -17.5z" />
    <glyph glyph-name="period" unicode="." 
d="M207 57q-17 18 -17 43t17 42q18 18 43 18t42 -18q18 -17 18 -42t-18 -43q-17 -17 -42 -17t-43 17z" />
    <glyph glyph-name="slash" unicode="/" horiz-adv-x="1020" 
d="M167 142l601 601q20 17 42 17q39 0 54.5 -37t-12.5 -66l-600 -600q-17 -17 -42 -17t-43 17q-17 18 -17 43t17 42z" />
    <glyph glyph-name="zero" unicode="0" horiz-adv-x="1040" 
d="M350 569q-70 -70 -70 -169q0 -100 70 -170t170 -70q99 0 169 70q71 71 71 170q0 98 -71 169t-169 71q-99 0 -170 -71zM265 145q-105 107 -105 255q0 149 105 254q106 106 255 106t254 -106q106 -105 106 -254t-106 -255q-105 -105 -254 -105q-148 0 -255 105z" />
    <glyph glyph-name="one" unicode="1" horiz-adv-x="840" 
d="M360 640h-90q-25 0 -42.5 17.5t-17.5 42.5t17.5 42.5t42.5 17.5h150q25 0 42.5 -17.5t17.5 -42.5v-540h140q25 0 42.5 -17.5t17.5 -42.5t-17.5 -42.5t-42.5 -17.5h-400q-25 0 -42.5 17.5t-17.5 42.5t17.5 42.5t42.5 17.5h140v480z" />
    <glyph glyph-name="two" unicode="2" horiz-adv-x="990" 
d="M760 40h-530q-25 0 -42.5 17.5t-17.5 42.5q0 111 81 192q39 38 85 64q90 52 193 78q45 11 84 26q66 29 66 80q0 50 -49.5 75t-135.5 25q-65 0 -105 -14t-103 -49q-21 -12 -46.5 -7.5t-37.5 25.5q-13 22 -6.5 46.5t26.5 37.5q54 36 131 59q75 22 141 22q137 0 220 -58
q85 -58 85 -162q-2 -87 -53 -134q-53 -49 -171 -80q-214 -58 -270 -166h455q25 0 42.5 -17.5t17.5 -42.5t-17.5 -42.5t-42.5 -17.5z" />
    <glyph glyph-name="three" unicode="3" horiz-adv-x="919" 
d="M465 340h-63q-25 0 -42.5 17.5t-17.5 42.5t17.5 42.5t42.5 17.5h55q180 0 180 90t-185 90q-101 0 -195 -38q-25 -9 -46.5 1t-28.5 36q-13 53 37 76q104 45 233 45q135 0 220 -56q85 -55 85 -154q0 -95 -79 -150q79 -57 79 -150q0 -99 -85 -154q-85 -56 -220 -56
q-130 0 -233 45q-24 9 -34.5 30t-2.5 46q8 26 29 36t46 1q94 -38 195 -38q185 0 185 90q0 86 -172 90z" />
    <glyph glyph-name="four" unicode="4" horiz-adv-x="1020" 
d="M600 190h-390q-25 -2 -42.5 17.5t-17.5 42.5t17 42l451 451q20 17 42 17q25 0 42.5 -17.5t17.5 -42.5v-390h90q25 0 42.5 -17.5t17.5 -42.5t-17.5 -42.5t-42.5 -17.5h-90v-90q0 -25 -17.5 -42.5t-42.5 -17.5t-42.5 17.5t-17.5 42.5v90zM600 555l-245 -245h245v245z" />
    <glyph glyph-name="five" unicode="5" horiz-adv-x="919" 
d="M678 640h-336l-16 -162q58 12 126 12q140 0 222 -57q83 -57 83 -168t-83 -168q-82 -57 -222 -57q-130 0 -233 45q-24 9 -34.5 30t-2.5 46q9 27 30 36.5t45 0.5q94 -38 195 -38q185 0 185 105t-185 105q-114 0 -161 -30q-13 -10 -33 -10q-25 0 -42.5 17.5t-17.5 42.5
l30 310q0 25 17.5 42.5t42.5 17.5h390q25 0 42.5 -17.5t17.5 -42.5t-17.5 -42.5t-42.5 -17.5z" />
    <glyph glyph-name="six" unicode="6" horiz-adv-x="990" 
d="M505 40q-171 0 -258 88t-87 252q0 166 102 272q102 108 263 108q109 0 213 -45q57 -26 37 -76q-24 -55 -85 -33l-49 18q-46 16 -116 16q-92 0 -158 -54q-65 -53 -82 -136q76 60 220 60q141 0 233 -60t92 -175q0 -110 -93 -173q-94 -62 -232 -62zM353 357q-53 -32 -53 -82
t53 -83q53 -32 152 -32t152 32q53 33 53 83t-53 82q-53 33 -152 33t-152 -33z" />
    <glyph glyph-name="seven" unicode="7" horiz-adv-x="950" 
d="M646 640h-446q-25 0 -42.5 17.5t-17.5 42.5t17.5 42.5t42.5 17.5h550q25 0 42.5 -17.5t17.5 -42.5q0 -16 -7 -29l-347 -602q-17 -29 -52 -29q-25 0 -42.5 17.5t-17.5 42.5q0 14 12 36z" />
    <glyph glyph-name="eight" unicode="8" horiz-adv-x="970" 
d="M770 555q0 -81 -54 -134q94 -55 94 -166q0 -107 -92 -161t-233 -54q-143 0 -234 54t-91 161q0 111 94 166q-54 53 -54 134q0 100 80 153q79 52 205 52t205 -52q80 -53 80 -153zM690 255q0 60 -62 78q-52 17 -143 17q-90 0 -144 -17q-61 -18 -61 -78q0 -47 58 -71t147 -24
t147 24t58 71zM320 555q0 -85 165 -85t165 85t-165 85t-165 -85z" />
    <glyph glyph-name="nine" unicode="9" horiz-adv-x="990" 
d="M485 760q171 0 258 -88t87 -252q0 -165 -102 -273q-102 -107 -263 -107q-109 0 -213 45q-57 26 -37 76q24 55 85 33l48 -18q48 -16 117 -16q92 0 157 53q66 54 83 137q-77 -60 -220 -60q-141 0 -233 60t-92 175q0 111 93 172q93 63 232 63zM637 442q53 33 53 83t-53 82
q-53 33 -152 33t-152 -33q-53 -32 -53 -82t53 -83q53 -32 152 -32t152 32z" />
    <glyph glyph-name="colon" unicode=":" 
d="M207 557q-17 18 -17 43t17 42q18 18 43 18t42 -18q18 -17 18 -42t-18 -43q-17 -17 -42 -17t-43 17zM207 157q-17 18 -17 43t17 42q18 18 43 18t42 -18q18 -17 18 -42t-18 -43q-17 -17 -42 -17t-43 17z" />
    <glyph glyph-name="semicolon" unicode=";" horiz-adv-x="572" 
d="M175 -44l100 174q13 21 36.5 27.5t45.5 -5.5q22 -13 28 -37t-6 -45l-100 -174q-13 -21 -36.5 -27.5t-45.5 5.5q-22 13 -28 37t6 45zM284 457q-17 18 -17 43t17 42q18 18 43 18t42 -18q18 -17 18 -42t-18 -43q-17 -17 -42 -17t-43 17z" />
    <glyph glyph-name="less" unicode="&#x3c;" horiz-adv-x="652" 
d="M167 442l213 213q17 17 42 17t42 -17q18 -18 18 -43t-18 -42l-170 -170l170 -170q18 -17 18 -42t-18 -43q-17 -17 -42 -17t-42 17l-213 213q-17 17 -17 42t17 42z" />
    <glyph glyph-name="equal" unicode="=" horiz-adv-x="990" 
d="M770 475h-550q-25 0 -42.5 17.5t-17.5 42.5t17.5 42.5t42.5 17.5h550q25 0 42.5 -17.5t17.5 -42.5t-17.5 -42.5t-42.5 -17.5zM770 205h-550q-25 0 -42.5 17.5t-17.5 42.5t17.5 42.5t42.5 17.5h550q25 0 42.5 -17.5t17.5 -42.5t-17.5 -42.5t-42.5 -17.5z" />
    <glyph glyph-name="greater" unicode="&#x3e;" horiz-adv-x="652" 
d="M272 655l213 -213q17 -17 17 -42t-17 -42l-213 -213q-17 -17 -42 -17t-42 17q-18 18 -18 43t18 42l170 170l-170 170q-18 17 -18 42t18 43q17 17 42 17t42 -17z" />
    <glyph glyph-name="question" unicode="?" horiz-adv-x="870" 
d="M371 57q-17 18 -17 43t17 42q18 18 43 18t42 -18q18 -17 18 -42t-18 -43q-17 -17 -42 -17t-43 17zM424 340h-50q-25 0 -42.5 17.5t-17.5 42.5t17.5 42.5t42.5 17.5h55q180 0 180 90t-185 90q-101 0 -195 -38q-54 -16 -75 37q-9 23 1.5 44t35.5 32q103 45 233 45
q139 0 222 -53t83 -157t-83 -157t-222 -53z" />
    <glyph glyph-name="at" unicode="@" horiz-adv-x="1340" 
d="M670 10q25 0 42.5 -17.5t17.5 -42.5t-18.5 -42.5t-46.5 -17.5q-101 -1 -195 40t-162.5 110.5t-109 164t-38.5 195.5q0 103 40 197.5t109 163.5t163.5 109t197.5 40t197.5 -40t163.5 -109t109 -163.5t40 -197.5q0 -87 -62 -149q-61 -61 -148 -61q-88 0 -150 63
q-62 -63 -150 -63t-149 61t-61 149q0 87 61 148q62 62 149 62q86 0 148 -62t62 -148q1 -39 27 -64.5t63 -25.5q38 0 64 26t26 64q0 161 -115 275q-114 115 -275 115t-276 -115q-114 -114 -114 -275q0 -160 114 -276q116 -114 276 -114zM606 464q-26 -26 -26 -64t26 -64
t64 -26t64 26t26 64t-26 64t-64 26t-64 -26z" />
    <glyph glyph-name="A" unicode="A" horiz-adv-x="1112" 
d="M157 129l347 602q19 29 52 29t52 -29l347 -602q7 -15 7 -29q0 -25 -17.5 -42.5t-42.5 -17.5q-35 0 -56 37l-65 113h-451l-65 -113q-21 -37 -55 -37q-25 0 -42.5 17.5t-17.5 42.5q0 16 7 29zM712 310l-156 271l-157 -271h313z" />
    <glyph glyph-name="B" unicode="B" horiz-adv-x="1030" 
d="M860 250q0 -86 -60 -147q-60 -62 -145 -63h-405q-25 0 -42.5 17.5t-17.5 42.5v600q0 25 17.5 42.5t42.5 17.5h405q84 -1 145 -64q60 -62 60 -146q0 -88 -63 -150q63 -62 63 -150zM650 640h-340v-180h343q36 2 61.5 28t25.5 62q0 38 -26 64t-64 26zM653 340h-343v-180h340
q38 0 64 26t26 64q0 36 -25.5 62t-61.5 28z" />
    <glyph glyph-name="C" unicode="C" horiz-adv-x="952" 
d="M520 760q141 0 247 -100q25 -22 25 -48q0 -25 -17.5 -42.5t-42.5 -17.5q-26 0 -43 17q-69 71 -169 71q-99 0 -170 -71q-70 -70 -70 -169q0 -100 70 -170t170 -70q99 0 169 70q18 18 43 18t42 -18q18 -17 18 -42t-18 -43q-105 -105 -254 -105q-148 0 -255 105
q-105 107 -105 255q0 149 105 254q106 106 255 106z" />
    <glyph glyph-name="D" unicode="D" horiz-adv-x="1020" 
d="M190 100v600q0 25 17.5 42.5t42.5 17.5h256q146 -3 250 -108q104 -106 104 -252q0 -149 -106 -255q-105 -105 -254 -105h-250q-25 0 -42.5 17.5t-17.5 42.5zM500 640h-190v-480h190q99 0 169 70q71 71 71 170q0 98 -71 169t-169 71z" />
    <glyph glyph-name="E" unicode="E" horiz-adv-x="980" 
d="M190 100v600q0 25 17.5 42.5t42.5 17.5h500q25 0 42.5 -17.5t17.5 -42.5t-17.5 -42.5t-42.5 -17.5h-440v-180h340q25 0 42.5 -17.5t17.5 -42.5t-17.5 -42.5t-42.5 -17.5h-340v-180h440q25 0 42.5 -17.5t17.5 -42.5t-17.5 -42.5t-42.5 -17.5h-500q-25 0 -42.5 17.5
t-17.5 42.5z" />
    <glyph glyph-name="F" unicode="F" horiz-adv-x="960" 
d="M190 100v600q0 25 17.5 42.5t42.5 17.5h500q25 0 42.5 -17.5t17.5 -42.5t-17.5 -42.5t-42.5 -17.5h-440v-180h340q25 0 42.5 -17.5t17.5 -42.5t-17.5 -42.5t-42.5 -17.5h-340v-240q0 -25 -17.5 -42.5t-42.5 -17.5t-42.5 17.5t-17.5 42.5z" />
    <glyph glyph-name="G" unicode="G" horiz-adv-x="952" 
d="M672 328h-140q-25 0 -42.5 17.5t-17.5 42.5t17.5 42.5t42.5 17.5h200q25 0 42.5 -17.5t17.5 -42.5v-200q0 -25 -18 -43q-105 -105 -254 -105q-148 0 -255 105q-105 107 -105 255q0 149 105 254q106 106 255 106q141 0 247 -100q25 -18 25 -48q0 -25 -17.5 -42.5
t-42.5 -17.5q-26 0 -43 17q-69 71 -169 71q-99 0 -170 -71q-70 -70 -70 -169q0 -100 70 -170t170 -70q87 0 152 54v114z" />
    <glyph glyph-name="H" unicode="H" horiz-adv-x="1050" 
d="M190 100v600q0 25 17.5 42.5t42.5 17.5t42.5 -17.5t17.5 -42.5v-240h430v240q0 25 17.5 42.5t42.5 17.5t42.5 -17.5t17.5 -42.5v-600q0 -25 -17.5 -42.5t-42.5 -17.5t-42.5 17.5t-17.5 42.5v240h-430v-240q0 -25 -17.5 -42.5t-42.5 -17.5t-42.5 17.5t-17.5 42.5z" />
    <glyph glyph-name="I" unicode="I" 
d="M190 100v600q0 25 17.5 42.5t42.5 17.5t42.5 -17.5t17.5 -42.5v-600q0 -25 -17.5 -42.5t-42.5 -17.5t-42.5 17.5t-17.5 42.5z" />
    <glyph glyph-name="J" unicode="J" horiz-adv-x="910" 
d="M160 325q0 25 17.5 42.5t42.5 17.5t42.5 -17.5t17.5 -42.5q0 -67 48 -117q50 -48 117 -48q68 0 116 48q49 49 49 117v375q0 25 17.5 42.5t42.5 17.5t42.5 -17.5t17.5 -42.5v-375q0 -118 -84 -202q-83 -83 -201 -83q-117 0 -202 83q-83 85 -83 202z" />
    <glyph glyph-name="K" unicode="K" horiz-adv-x="1080" 
d="M190 100v600q0 25 17.5 42.5t42.5 17.5t42.5 -17.5t17.5 -42.5v-455l497 497q18 18 43 18t42 -18q18 -17 18 -42t-18 -43l-257 -257l257 -258q18 -18 18 -42q0 -25 -17.5 -42.5t-42.5 -17.5q-26 0 -43 17l-257 258l-258 -258q-19 -17 -42 -17t-42.5 17.5t-17.5 42.5z" />
    <glyph glyph-name="L" unicode="L" horiz-adv-x="960" 
d="M190 100v600q0 25 17.5 42.5t42.5 17.5t42.5 -17.5t17.5 -42.5v-540h440q25 0 42.5 -17.5t17.5 -42.5t-17.5 -42.5t-42.5 -17.5h-500q-25 0 -42.5 17.5t-17.5 42.5z" />
    <glyph glyph-name="M" unicode="M" horiz-adv-x="1200" 
d="M890 100v455l-248 -248q-17 -17 -42 -17q-26 0 -43 17l-247 248v-455q0 -25 -17.5 -42.5t-42.5 -17.5t-42.5 17.5t-17.5 42.5v600q0 25 17.5 42.5t42.5 17.5q22 0 42 -17l308 -308l307 307q29 28 66 12.5t37 -54.5v-600q0 -25 -17.5 -42.5t-42.5 -17.5t-42.5 17.5
t-17.5 42.5z" />
    <glyph glyph-name="N" unicode="N" horiz-adv-x="1100" 
d="M190 100v600q0 25 17.5 42.5t42.5 17.5q22 0 42 -17l498 -498v455q0 25 17.5 42.5t42.5 17.5t42.5 -17.5t17.5 -42.5v-600q0 -25 -17.5 -42.5t-42.5 -17.5q-26 0 -43 17l-497 498v-455q0 -25 -17.5 -42.5t-42.5 -17.5t-42.5 17.5t-17.5 42.5z" />
    <glyph glyph-name="O" unicode="O" horiz-adv-x="1040" 
d="M350 569q-70 -70 -70 -169q0 -100 70 -170t170 -70q99 0 169 70q71 71 71 170q0 98 -71 169t-169 71q-99 0 -170 -71zM265 145q-105 107 -105 255q0 149 105 254q106 106 255 106t254 -106q106 -105 106 -254t-106 -255q-105 -105 -254 -105q-148 0 -255 105z" />
    <glyph glyph-name="P" unicode="P" horiz-adv-x="955" 
d="M190 100v600q0 25 17.5 42.5t42.5 17.5h305q94 -1 162 -71q68 -68 68 -164q0 -97 -69 -166q-68 -69 -166 -69h-240v-190q0 -25 -17.5 -42.5t-42.5 -17.5t-42.5 17.5t-17.5 42.5zM555 640h-245v-230h240q47 0 81 34t34 81q0 46 -33 79q-31 34 -77 36z" />
    <glyph glyph-name="Q" unicode="Q" horiz-adv-x="1040" 
d="M778 58l-49 49q-94 -67 -209 -67q-148 0 -255 105q-105 107 -105 255q0 149 105 254q106 106 255 106t254 -106q106 -105 106 -254q0 -115 -67 -209l49 -49q18 -17 18 -42t-18 -42q-17 -18 -42 -18t-42 18zM642 194l-76 76q-18 17 -18 42t18 42q17 18 42 18t42 -18
l76 -76q34 58 34 122q0 98 -71 169t-169 71q-99 0 -170 -71q-70 -70 -70 -169q0 -100 70 -170t170 -70q67 0 122 34z" />
    <glyph glyph-name="R" unicode="R" horiz-adv-x="980" 
d="M190 100v600q0 25 17.5 42.5t42.5 17.5h305q94 -1 162 -71q68 -68 68 -164q0 -75 -43 -136q-43 -60 -112 -85l163 -162q17 -20 17 -42q2 -39 -37.5 -55t-64.5 12l-233 233h-165v-190q0 -25 -17.5 -42.5t-42.5 -17.5t-42.5 17.5t-17.5 42.5zM555 640h-245v-230h240
q47 0 81 34t34 81q0 46 -33 79q-31 34 -77 36z" />
    <glyph glyph-name="S" unicode="S" horiz-adv-x="950" 
d="M449 160h30q185 0 185 90t-185 90q-139 0 -222 53t-83 157q0 98 84 154q86 56 221 56q129 0 233 -45q25 -11 35.5 -32t1.5 -44q-21 -53 -75 -37q-94 38 -195 38q-185 0 -185 -90t185 -90q139 0 222 -53t83 -157q0 -99 -85 -154q-85 -56 -220 -56h-30q-128 0 -233 44
q-23 8 -34.5 31.5t-2.5 46.5q10 25 31.5 34.5t44.5 1.5q102 -38 194 -38z" />
    <glyph glyph-name="T" unicode="T" horiz-adv-x="1020" 
d="M450 100v540h-240q-25 0 -42.5 17.5t-17.5 42.5t17.5 42.5t42.5 17.5h600q25 0 42.5 -17.5t17.5 -42.5t-17.5 -42.5t-42.5 -17.5h-240v-540q0 -25 -17.5 -42.5t-42.5 -17.5t-42.5 17.5t-17.5 42.5z" />
    <glyph glyph-name="U" unicode="U" horiz-adv-x="1030" 
d="M730 375v325q0 25 17.5 42.5t42.5 17.5t42.5 -17.5t17.5 -42.5v-325q0 -139 -98 -237t-237 -98t-237 98t-98 237v325q0 25 17.5 42.5t42.5 17.5t42.5 -17.5t17.5 -42.5v-330q1 -86 64 -149q62 -61 151 -61t152 63t63 152z" />
    <glyph glyph-name="V" unicode="V" horiz-adv-x="1112" 
d="M504 69l-347 602q-7 10 -7 29q0 25 17.5 42.5t42.5 17.5q36 0 55 -37l291 -504l290 504q19 37 56 37q25 0 42.5 -17.5t17.5 -42.5q0 -16 -7 -29l-347 -602q-19 -29 -52 -29t-52 29z" />
    <glyph glyph-name="W" unicode="W" horiz-adv-x="1392" 
d="M883 77l-187 463l-187 -463q-16 -37 -56 -37q-41 0 -56 37l-242 598q-5 12 -5 25q0 25 17.5 42.5t42.5 17.5q38 0 56 -37l187 -463l187 463q16 37 56 37q38 0 56 -37l187 -463l187 463q16 37 56 37q25 0 42.5 -17.5t17.5 -42.5q0 -10 -5 -25l-242 -598q-16 -37 -56 -37
q-41 0 -56 37z" />
    <glyph glyph-name="X" unicode="X" horiz-adv-x="1060" 
d="M830 40q-26 0 -43 17l-257 258l-258 -258q-17 -17 -42 -17t-43 17q-17 18 -17 43t17 42l258 258l-258 257q-17 17 -17 43q0 25 17.5 42.5t42.5 17.5q22 0 42 -17l258 -258l258 258q20 17 42 17q39 0 54.5 -37t-12.5 -66l-257 -257l257 -258q18 -18 18 -42
q0 -25 -17.5 -42.5t-42.5 -17.5z" />
    <glyph glyph-name="Y" unicode="Y" horiz-adv-x="1040" 
d="M460 100v275l-283 282q-17 17 -17 43q0 25 17.5 42.5t42.5 17.5q22 0 42 -17l258 -258l257 257q29 28 66 12.5t37 -54.5q0 -22 -17 -42l-283 -283v-275q0 -25 -17.5 -42.5t-42.5 -17.5t-42.5 17.5t-17.5 42.5z" />
    <glyph glyph-name="Z" unicode="Z" horiz-adv-x="1060" 
d="M830 40h-600q-25 -2 -42.5 17.5t-17.5 42.5t17 42l498 498h-455q-25 0 -42.5 17.5t-17.5 42.5t17.5 42.5t42.5 17.5h600q39 0 54.5 -37t-12.5 -66l-497 -497h455q25 0 42.5 -17.5t17.5 -42.5t-17.5 -42.5t-42.5 -17.5z" />
    <glyph glyph-name="bracketleft" unicode="[" horiz-adv-x="730" 
d="M500 -110h-250q-25 0 -42.5 17.5t-17.5 42.5v5v890v5q0 25 17.5 42.5t42.5 17.5h250q25 0 42.5 -17.5t17.5 -42.5t-17.5 -42.5t-42.5 -17.5h-190v-780h190q25 0 42.5 -17.5t17.5 -42.5t-17.5 -42.5t-42.5 -17.5z" />
    <glyph glyph-name="backslash" unicode="\" horiz-adv-x="1020" 
d="M870 100q2 -39 -37.5 -55t-64.5 12l-601 600q-17 17 -17 43q0 25 17.5 42.5t42.5 17.5q22 0 42 -17l600 -601q18 -18 18 -42z" />
    <glyph glyph-name="bracketright" unicode="]" horiz-adv-x="730" 
d="M480 -110h-250q-25 0 -42.5 17.5t-17.5 42.5t17.5 42.5t42.5 17.5h190v780h-190q-25 0 -42.5 17.5t-17.5 42.5t17.5 42.5t42.5 17.5h250q25 0 42.5 -17.5t17.5 -42.5v-900q0 -25 -17.5 -42.5t-42.5 -17.5z" />
    <glyph glyph-name="asciicircum" unicode="^" horiz-adv-x="864" 
d="M177 630l213 213q17 17 42 17t42 -17l213 -213q17 -17 17 -42t-17 -42q-18 -18 -43 -18t-42 18l-170 170l-170 -170q-17 -18 -42 -18t-43 18q-17 17 -17 42t17 42z" />
    <glyph glyph-name="underscore" unicode="_" horiz-adv-x="1120" 
d="M910 40h-700q-25 0 -42.5 17.5t-17.5 42.5t17.5 42.5t42.5 17.5h700q25 0 42.5 -17.5t17.5 -42.5t-17.5 -42.5t-42.5 -17.5z" />
    <glyph glyph-name="a" unicode="a" horiz-adv-x="1112" 
d="M157 129l347 602q19 29 52 29t52 -29l347 -602q7 -15 7 -29q0 -25 -17.5 -42.5t-42.5 -17.5q-35 0 -56 37l-65 113h-451l-65 -113q-21 -37 -55 -37q-25 0 -42.5 17.5t-17.5 42.5q0 16 7 29zM712 310l-156 271l-157 -271h313z" />
    <glyph glyph-name="b" unicode="b" horiz-adv-x="1030" 
d="M860 250q0 -86 -60 -147q-60 -62 -145 -63h-405q-25 0 -42.5 17.5t-17.5 42.5v600q0 25 17.5 42.5t42.5 17.5h405q84 -1 145 -64q60 -62 60 -146q0 -88 -63 -150q63 -62 63 -150zM650 640h-340v-180h343q36 2 61.5 28t25.5 62q0 38 -26 64t-64 26zM653 340h-343v-180h340
q38 0 64 26t26 64q0 36 -25.5 62t-61.5 28z" />
    <glyph glyph-name="c" unicode="c" horiz-adv-x="952" 
d="M520 760q141 0 247 -100q25 -22 25 -48q0 -25 -17.5 -42.5t-42.5 -17.5q-26 0 -43 17q-69 71 -169 71q-99 0 -170 -71q-70 -70 -70 -169q0 -100 70 -170t170 -70q99 0 169 70q18 18 43 18t42 -18q18 -17 18 -42t-18 -43q-105 -105 -254 -105q-148 0 -255 105
q-105 107 -105 255q0 149 105 254q106 106 255 106z" />
    <glyph glyph-name="d" unicode="d" horiz-adv-x="1020" 
d="M190 100v600q0 25 17.5 42.5t42.5 17.5h256q146 -3 250 -108q104 -106 104 -252q0 -149 -106 -255q-105 -105 -254 -105h-250q-25 0 -42.5 17.5t-17.5 42.5zM500 640h-190v-480h190q99 0 169 70q71 71 71 170q0 98 -71 169t-169 71z" />
    <glyph glyph-name="e" unicode="e" horiz-adv-x="980" 
d="M190 100v600q0 25 17.5 42.5t42.5 17.5h500q25 0 42.5 -17.5t17.5 -42.5t-17.5 -42.5t-42.5 -17.5h-440v-180h340q25 0 42.5 -17.5t17.5 -42.5t-17.5 -42.5t-42.5 -17.5h-340v-180h440q25 0 42.5 -17.5t17.5 -42.5t-17.5 -42.5t-42.5 -17.5h-500q-25 0 -42.5 17.5
t-17.5 42.5z" />
    <glyph glyph-name="f" unicode="f" horiz-adv-x="960" 
d="M190 100v600q0 25 17.5 42.5t42.5 17.5h500q25 0 42.5 -17.5t17.5 -42.5t-17.5 -42.5t-42.5 -17.5h-440v-180h340q25 0 42.5 -17.5t17.5 -42.5t-17.5 -42.5t-42.5 -17.5h-340v-240q0 -25 -17.5 -42.5t-42.5 -17.5t-42.5 17.5t-17.5 42.5z" />
    <glyph glyph-name="g" unicode="g" horiz-adv-x="952" 
d="M672 328h-140q-25 0 -42.5 17.5t-17.5 42.5t17.5 42.5t42.5 17.5h200q25 0 42.5 -17.5t17.5 -42.5v-200q0 -25 -18 -43q-105 -105 -254 -105q-148 0 -255 105q-105 107 -105 255q0 149 105 254q106 106 255 106q141 0 247 -100q25 -18 25 -48q0 -25 -17.5 -42.5
t-42.5 -17.5q-26 0 -43 17q-69 71 -169 71q-99 0 -170 -71q-70 -70 -70 -169q0 -100 70 -170t170 -70q87 0 152 54v114z" />
    <glyph glyph-name="h" unicode="h" horiz-adv-x="1050" 
d="M190 100v600q0 25 17.5 42.5t42.5 17.5t42.5 -17.5t17.5 -42.5v-240h430v240q0 25 17.5 42.5t42.5 17.5t42.5 -17.5t17.5 -42.5v-600q0 -25 -17.5 -42.5t-42.5 -17.5t-42.5 17.5t-17.5 42.5v240h-430v-240q0 -25 -17.5 -42.5t-42.5 -17.5t-42.5 17.5t-17.5 42.5z" />
    <glyph glyph-name="i" unicode="i" 
d="M190 100v600q0 25 17.5 42.5t42.5 17.5t42.5 -17.5t17.5 -42.5v-600q0 -25 -17.5 -42.5t-42.5 -17.5t-42.5 17.5t-17.5 42.5z" />
    <glyph glyph-name="j" unicode="j" horiz-adv-x="910" 
d="M160 325q0 25 17.5 42.5t42.5 17.5t42.5 -17.5t17.5 -42.5q0 -67 48 -117q50 -48 117 -48q68 0 116 48q49 49 49 117v375q0 25 17.5 42.5t42.5 17.5t42.5 -17.5t17.5 -42.5v-375q0 -118 -84 -202q-83 -83 -201 -83q-117 0 -202 83q-83 85 -83 202z" />
    <glyph glyph-name="k" unicode="k" horiz-adv-x="1080" 
d="M190 100v600q0 25 17.5 42.5t42.5 17.5t42.5 -17.5t17.5 -42.5v-455l497 497q18 18 43 18t42 -18q18 -17 18 -42t-18 -43l-257 -257l257 -258q18 -18 18 -42q0 -25 -17.5 -42.5t-42.5 -17.5q-26 0 -43 17l-257 258l-258 -258q-19 -17 -42 -17t-42.5 17.5t-17.5 42.5z" />
    <glyph glyph-name="l" unicode="l" horiz-adv-x="960" 
d="M190 100v600q0 25 17.5 42.5t42.5 17.5t42.5 -17.5t17.5 -42.5v-540h440q25 0 42.5 -17.5t17.5 -42.5t-17.5 -42.5t-42.5 -17.5h-500q-25 0 -42.5 17.5t-17.5 42.5z" />
    <glyph glyph-name="m" unicode="m" horiz-adv-x="1200" 
d="M890 100v455l-248 -248q-17 -17 -42 -17q-26 0 -43 17l-247 248v-455q0 -25 -17.5 -42.5t-42.5 -17.5t-42.5 17.5t-17.5 42.5v600q0 25 17.5 42.5t42.5 17.5q22 0 42 -17l308 -308l307 307q29 28 66 12.5t37 -54.5v-600q0 -25 -17.5 -42.5t-42.5 -17.5t-42.5 17.5
t-17.5 42.5z" />
    <glyph glyph-name="n" unicode="n" horiz-adv-x="1100" 
d="M190 100v600q0 25 17.5 42.5t42.5 17.5q22 0 42 -17l498 -498v455q0 25 17.5 42.5t42.5 17.5t42.5 -17.5t17.5 -42.5v-600q0 -25 -17.5 -42.5t-42.5 -17.5q-26 0 -43 17l-497 498v-455q0 -25 -17.5 -42.5t-42.5 -17.5t-42.5 17.5t-17.5 42.5z" />
    <glyph glyph-name="o" unicode="o" horiz-adv-x="1040" 
d="M350 569q-70 -70 -70 -169q0 -100 70 -170t170 -70q99 0 169 70q71 71 71 170q0 98 -71 169t-169 71q-99 0 -170 -71zM265 145q-105 107 -105 255q0 149 105 254q106 106 255 106t254 -106q106 -105 106 -254t-106 -255q-105 -105 -254 -105q-148 0 -255 105z" />
    <glyph glyph-name="p" unicode="p" horiz-adv-x="955" 
d="M190 100v600q0 25 17.5 42.5t42.5 17.5h305q94 -1 162 -71q68 -68 68 -164q0 -97 -69 -166q-68 -69 -166 -69h-240v-190q0 -25 -17.5 -42.5t-42.5 -17.5t-42.5 17.5t-17.5 42.5zM555 640h-245v-230h240q47 0 81 34t34 81q0 46 -33 79q-31 34 -77 36z" />
    <glyph glyph-name="q" unicode="q" horiz-adv-x="1040" 
d="M778 58l-49 49q-94 -67 -209 -67q-148 0 -255 105q-105 107 -105 255q0 149 105 254q106 106 255 106t254 -106q106 -105 106 -254q0 -115 -67 -209l49 -49q18 -17 18 -42t-18 -42q-17 -18 -42 -18t-42 18zM642 194l-76 76q-18 17 -18 42t18 42q17 18 42 18t42 -18
l76 -76q34 58 34 122q0 98 -71 169t-169 71q-99 0 -170 -71q-70 -70 -70 -169q0 -100 70 -170t170 -70q67 0 122 34z" />
    <glyph glyph-name="r" unicode="r" horiz-adv-x="980" 
d="M190 100v600q0 25 17.5 42.5t42.5 17.5h305q94 -1 162 -71q68 -68 68 -164q0 -75 -43 -136q-43 -60 -112 -85l163 -162q17 -20 17 -42q2 -39 -37.5 -55t-64.5 12l-233 233h-165v-190q0 -25 -17.5 -42.5t-42.5 -17.5t-42.5 17.5t-17.5 42.5zM555 640h-245v-230h240
q47 0 81 34t34 81q0 46 -33 79q-31 34 -77 36z" />
    <glyph glyph-name="s" unicode="s" horiz-adv-x="950" 
d="M449 160h30q185 0 185 90t-185 90q-139 0 -222 53t-83 157q0 98 84 154q86 56 221 56q129 0 233 -45q25 -11 35.5 -32t1.5 -44q-21 -53 -75 -37q-94 38 -195 38q-185 0 -185 -90t185 -90q139 0 222 -53t83 -157q0 -99 -85 -154q-85 -56 -220 -56h-30q-128 0 -233 44
q-23 8 -34.5 31.5t-2.5 46.5q10 25 31.5 34.5t44.5 1.5q102 -38 194 -38z" />
    <glyph glyph-name="t" unicode="t" horiz-adv-x="1020" 
d="M450 100v540h-240q-25 0 -42.5 17.5t-17.5 42.5t17.5 42.5t42.5 17.5h600q25 0 42.5 -17.5t17.5 -42.5t-17.5 -42.5t-42.5 -17.5h-240v-540q0 -25 -17.5 -42.5t-42.5 -17.5t-42.5 17.5t-17.5 42.5z" />
    <glyph glyph-name="u" unicode="u" horiz-adv-x="1030" 
d="M730 375v325q0 25 17.5 42.5t42.5 17.5t42.5 -17.5t17.5 -42.5v-325q0 -139 -98 -237t-237 -98t-237 98t-98 237v325q0 25 17.5 42.5t42.5 17.5t42.5 -17.5t17.5 -42.5v-330q1 -86 64 -149q62 -61 151 -61t152 63t63 152z" />
    <glyph glyph-name="v" unicode="v" horiz-adv-x="1112" 
d="M504 69l-347 602q-7 10 -7 29q0 25 17.5 42.5t42.5 17.5q36 0 55 -37l291 -504l290 504q19 37 56 37q25 0 42.5 -17.5t17.5 -42.5q0 -16 -7 -29l-347 -602q-19 -29 -52 -29t-52 29z" />
    <glyph glyph-name="w" unicode="w" horiz-adv-x="1392" 
d="M883 77l-187 463l-187 -463q-16 -37 -56 -37q-41 0 -56 37l-242 598q-5 12 -5 25q0 25 17.5 42.5t42.5 17.5q38 0 56 -37l187 -463l187 463q16 37 56 37q38 0 56 -37l187 -463l187 463q16 37 56 37q25 0 42.5 -17.5t17.5 -42.5q0 -10 -5 -25l-242 -598q-16 -37 -56 -37
q-41 0 -56 37z" />
    <glyph glyph-name="x" unicode="x" horiz-adv-x="1060" 
d="M830 40q-26 0 -43 17l-257 258l-258 -258q-17 -17 -42 -17t-43 17q-17 18 -17 43t17 42l258 258l-258 257q-17 17 -17 43q0 25 17.5 42.5t42.5 17.5q22 0 42 -17l258 -258l258 258q20 17 42 17q39 0 54.5 -37t-12.5 -66l-257 -257l257 -258q18 -18 18 -42
q0 -25 -17.5 -42.5t-42.5 -17.5z" />
    <glyph glyph-name="y" unicode="y" horiz-adv-x="1040" 
d="M460 100v275l-283 282q-17 17 -17 43q0 25 17.5 42.5t42.5 17.5q22 0 42 -17l258 -258l257 257q29 28 66 12.5t37 -54.5q0 -22 -17 -42l-283 -283v-275q0 -25 -17.5 -42.5t-42.5 -17.5t-42.5 17.5t-17.5 42.5z" />
    <glyph glyph-name="z" unicode="z" horiz-adv-x="1060" 
d="M830 40h-600q-25 -2 -42.5 17.5t-17.5 42.5t17 42l498 498h-455q-25 0 -42.5 17.5t-17.5 42.5t17.5 42.5t42.5 17.5h600q39 0 54.5 -37t-12.5 -66l-497 -497h455q25 0 42.5 -17.5t17.5 -42.5t-17.5 -42.5t-42.5 -17.5z" />
    <glyph glyph-name="braceleft" unicode="{" horiz-adv-x="720" 
d="M300 550v150q0 87 61 148q62 62 149 62q25 0 42.5 -17.5t17.5 -42.5t-18.5 -42.5t-45.5 -17.5q-36 -1 -61 -27.5t-25 -62.5v-150q0 -88 -63 -150q63 -62 63 -150v-150q0 -37 25.5 -63t64.5 -27q25 0 42.5 -17.5t17.5 -42.5t-17.5 -42.5t-42.5 -17.5q-87 0 -149 62
q-61 61 -61 148v150q0 36 -26 62.5t-64 27.5q-25 0 -42.5 17.5t-17.5 42.5t17.5 42.5t42.5 17.5q38 0 64 26t26 64z" />
    <glyph glyph-name="bar" unicode="|" 
d="M190 -50v900q0 25 17.5 42.5t42.5 17.5t42.5 -17.5t17.5 -42.5v-900q0 -25 -17.5 -42.5t-42.5 -17.5t-42.5 17.5t-17.5 42.5z" />
    <glyph glyph-name="braceright" unicode="}" horiz-adv-x="720" 
d="M420 700v-150q0 -38 26 -64t64 -26q25 0 42.5 -17.5t17.5 -42.5t-17.5 -42.5t-42.5 -17.5q-38 -1 -64 -27.5t-26 -62.5v-150q0 -86 -62 -148t-148 -62q-25 0 -42.5 17.5t-17.5 42.5t17.5 42.5t42.5 17.5q39 1 64.5 27t25.5 63v150q0 88 63 150q-63 62 -63 150v150
q0 36 -25 62.5t-61 27.5q-27 0 -45.5 17.5t-18.5 42.5t17.5 42.5t42.5 17.5q86 0 148 -62t62 -148z" />
    <glyph glyph-name="asciitilde" unicode="~" horiz-adv-x="960" 
d="M581 389l-130 -75q-76 -44 -160 -22q-83 22 -127 98q-12 22 -5.5 46t27.5 36q22 13 46 6.5t36 -28.5q19 -32 55 -42t68 9l130 75q75 44 159 21q85 -22 128 -97q12 -22 5.5 -46t-27.5 -36q-22 -13 -46 -6.5t-36 28.5q-19 32 -55 42t-68 -9z" />
    <glyph glyph-name="currency" unicode="&#xa4;" horiz-adv-x="940" 
d="M248 536l-71 71q-17 17 -17 43q0 25 17.5 42.5t42.5 17.5q24 0 42 -18l71 -71q61 39 137 39q74 0 136 -39l71 71q29 28 66 12.5t37 -54.5q0 -22 -17 -42l-72 -72q39 -61 39 -136q0 -76 -39 -137l72 -71q17 -20 17 -42q2 -39 -37.5 -55t-64.5 12l-72 71q-62 -38 -136 -38
t-137 38l-71 -71q-17 -17 -42 -17t-43 17q-17 18 -17 43t17 42l71 71q-38 63 -38 137t38 136zM371 499q-41 -41 -41 -99t41 -99t99 -41t99 41t41 99t-41 99t-99 41t-99 -41z" />
    <glyph glyph-name="brokenbar" unicode="&#xa6;" 
d="M190 -50v300q0 25 17.5 42.5t42.5 17.5t42.5 -17.5t17.5 -42.5v-300q0 -25 -17.5 -42.5t-42.5 -17.5t-42.5 17.5t-17.5 42.5zM190 550v300q0 25 17.5 42.5t42.5 17.5t42.5 -17.5t17.5 -42.5v-300q0 -25 -17.5 -42.5t-42.5 -17.5t-42.5 17.5t-17.5 42.5z" />
    <glyph glyph-name="section" unicode="&#xa7;" horiz-adv-x="890" 
d="M170 400q0 87 76 147q-76 57 -76 153t79 153t196 57q99 0 203 -45q25 -11 35.5 -31.5t1.5 -44.5q-21 -55 -75 -37q-94 38 -165 38q-72 0 -113.5 -22.5t-41.5 -67.5q0 -85 143 -90h12q115 0 195 -60q80 -59 80 -150q0 -88 -76 -148q76 -58 76 -152q0 -96 -80 -153
t-195 -57q-98 0 -203 44q-24 10 -34.5 32t-2.5 45q9 26 31 36t44 1q94 -38 165 -38q72 0 113.5 22.5t41.5 67.5q0 85 -144 90h-11q-116 0 -196 59q-79 60 -79 151zM290 400q0 -41 42 -65t108 -25h5q68 0 111.5 24.5t43.5 65.5q0 40 -41.5 64t-108.5 26h-17h-1
q-63 -2 -102.5 -26.5t-39.5 -63.5z" />
    <glyph glyph-name="copyright" unicode="&#xa9;" horiz-adv-x="1340" 
d="M200 201q-40 95 -40 199t40 198q83 191 271 271q95 41 199 41t198 -41q191 -80 271 -271q41 -94 41 -198t-41 -199q-81 -191 -271 -270q-94 -41 -198 -41t-199 41q-187 79 -271 270zM394 675q-114 -114 -114 -275q0 -160 114 -276q116 -114 276 -114q161 0 275 114
q115 115 115 276t-115 275q-114 115 -275 115t-276 -115zM732 336q18 18 43 18t42 -18q18 -17 18 -42t-18 -43q-61 -61 -148 -61q-88 0 -149 61t-61 149q0 87 61 148q62 62 149 62q81 0 140 -55q26 -21 26 -49q0 -40 -36.5 -55t-70.5 17q-26 22 -59 22q-37 0 -63.5 -26
t-26.5 -64q-2 -37 26.5 -63.5t63.5 -26.5t63 26z" />
    <glyph glyph-name="guillemotleft" unicode="&#xab;" horiz-adv-x="1002" 
d="M167 442l213 213q17 17 42 17t42 -17q18 -18 18 -43t-18 -42l-170 -170l170 -170q18 -17 18 -42t-18 -43q-17 -17 -42 -17t-42 17l-213 213q-17 17 -17 42t17 42zM517 442l213 213q17 17 42 17t42 -17q18 -18 18 -43t-18 -42l-170 -170l170 -170q18 -17 18 -42t-18 -43
q-17 -17 -42 -17t-42 17l-213 213q-17 17 -17 42t17 42z" />
    <glyph glyph-name="uni00AD" unicode="&#xad;" horiz-adv-x="1050" 
d="M800 340h-550q-25 0 -42.5 17.5t-17.5 42.5t17.5 42.5t42.5 17.5h550q25 0 42.5 -17.5t17.5 -42.5t-17.5 -42.5t-42.5 -17.5z" />
    <glyph glyph-name="registered" unicode="&#xae;" horiz-adv-x="1340" 
d="M200 201q-40 95 -40 199t40 198q83 191 271 271q95 41 199 41t198 -41q191 -80 271 -271q41 -94 41 -198t-41 -199q-81 -191 -271 -270q-94 -41 -198 -41t-199 41q-187 79 -271 270zM394 675q-114 -114 -114 -275q0 -160 114 -276q116 -114 276 -114q161 0 275 114
q115 115 115 276t-115 275q-114 115 -275 115t-276 -115zM470 250v300q0 25 17.5 42.5t42.5 17.5h200q56 0 95 -40q40 -39 40 -95q0 -73 -62 -114l70 -69q17 -20 17 -42q2 -39 -37.5 -55t-64.5 12l-133 133h-65v-90q0 -25 -17.5 -42.5t-42.5 -17.5t-42.5 17.5t-17.5 42.5z
M745 475q0 6 -4.5 10.5t-10.5 4.5h-140v-30h142q13 1 13 15z" />
    <glyph glyph-name="degree" unicode="&#xb0;" horiz-adv-x="720" 
d="M211 501q-61 61 -61 149q0 87 61 148q62 62 149 62q86 0 148 -62t62 -148q0 -87 -62 -149q-61 -61 -148 -61q-88 0 -149 61zM296 714q-26 -26 -26 -64t26 -64t64 -26t64 26t26 64t-26 64t-64 26t-64 -26z" />
    <glyph glyph-name="plusminus" unicode="&#xb1;" horiz-adv-x="1010" 
d="M445 490h-215q-25 0 -42.5 17.5t-17.5 42.5t17.5 42.5t42.5 17.5h215v215q0 25 17.5 42.5t42.5 17.5t42.5 -17.5t17.5 -42.5v-215h215q25 0 42.5 -17.5t17.5 -42.5t-17.5 -42.5t-42.5 -17.5h-215v-215q0 -25 -17.5 -42.5t-42.5 -17.5t-42.5 17.5t-17.5 42.5v215zM780 40
h-550q-25 0 -42.5 17.5t-17.5 42.5t17.5 42.5t42.5 17.5h550q25 0 42.5 -17.5t17.5 -42.5t-17.5 -42.5t-42.5 -17.5z" />
    <glyph glyph-name="paragraph" unicode="&#xb6;" horiz-adv-x="1060" 
d="M630 0v740h-130v-740q0 -25 -17.5 -42.5t-42.5 -17.5t-42.5 17.5t-17.5 42.5v347q-87 19 -144 90q-56 71 -56 163q0 108 76 184t184 76h400q25 0 42.5 -17.5t17.5 -42.5t-17.5 -42.5t-42.5 -17.5h-90v-740q0 -25 -17.5 -42.5t-42.5 -17.5t-42.5 17.5t-17.5 42.5z" />
    <glyph glyph-name="middot" unicode="&#xb7;" 
d="M207 357q-17 18 -17 43t17 42q18 18 43 18t42 -18q18 -17 18 -42t-18 -43q-17 -17 -42 -17t-43 17z" />
    <glyph glyph-name="guillemotright" unicode="&#xbb;" horiz-adv-x="1002" 
d="M622 655l213 -213q17 -17 17 -42t-17 -42l-213 -213q-17 -17 -42 -17t-42 17q-18 18 -18 43t18 42l170 170l-170 170q-18 17 -18 42t18 43q17 17 42 17t42 -17zM272 655l213 -213q17 -17 17 -42t-17 -42l-213 -213q-17 -17 -42 -17t-42 17q-18 18 -18 43t18 42l170 170
l-170 170q-18 17 -18 42t18 43q17 17 42 17t42 -17z" />
    <glyph glyph-name="afii10023" unicode="&#x401;" horiz-adv-x="980" 
d="M307 907q-17 18 -17 43t17 42q18 18 43 18t42 -18q18 -17 18 -42t-18 -43q-17 -17 -42 -17t-43 17zM607 907q-17 18 -17 43t17 42q18 18 43 18t42 -18q18 -17 18 -42t-18 -43q-17 -17 -42 -17t-43 17zM190 100v600q0 25 17.5 42.5t42.5 17.5h500q25 0 42.5 -17.5
t17.5 -42.5t-17.5 -42.5t-42.5 -17.5h-440v-180h340q25 0 42.5 -17.5t17.5 -42.5t-17.5 -42.5t-42.5 -17.5h-340v-180h440q25 0 42.5 -17.5t17.5 -42.5t-17.5 -42.5t-42.5 -17.5h-500q-25 0 -42.5 17.5t-17.5 42.5z" />
    <glyph glyph-name="afii10052" unicode="&#x403;" horiz-adv-x="910" 
d="M190 100v600q0 25 17.5 42.5t42.5 17.5h450q25 0 42.5 -17.5t17.5 -42.5t-17.5 -42.5t-42.5 -17.5h-390v-540q0 -25 -17.5 -42.5t-42.5 -17.5t-42.5 17.5t-17.5 42.5zM439 1006l100 174q13 21 36.5 27.5t45.5 -5.5q22 -13 28 -37t-6 -45l-100 -174q-13 -21 -36.5 -27.5
t-45.5 5.5q-22 13 -28 37t6 45z" />
    <glyph glyph-name="afii10053" unicode="&#x404;" horiz-adv-x="952" 
d="M620 340h-332q19 -77 85 -129q65 -51 147 -51q99 0 169 70q18 18 43 18t42 -18q18 -17 18 -42t-18 -43q-105 -105 -254 -105q-148 0 -255 105q-105 107 -105 255q0 149 105 254q106 106 255 106q143 0 247 -100q35 -34 20 -71t-55 -37q-23 0 -43 17q-69 71 -169 71
q-82 0 -147 -51q-66 -52 -85 -129h332q25 0 42.5 -17.5t17.5 -42.5t-17.5 -42.5t-42.5 -17.5z" />
    <glyph glyph-name="afii10054" unicode="&#x405;" horiz-adv-x="950" 
d="M449 160h30q185 0 185 90t-185 90q-139 0 -222 53t-83 157q0 98 84 154q86 56 221 56q129 0 233 -45q25 -11 35.5 -32t1.5 -44q-21 -53 -75 -37q-94 38 -195 38q-185 0 -185 -90t185 -90q139 0 222 -53t83 -157q0 -99 -85 -154q-85 -56 -220 -56h-30q-128 0 -233 44
q-23 8 -34.5 31.5t-2.5 46.5q10 25 31.5 34.5t44.5 1.5q102 -38 194 -38z" />
    <glyph glyph-name="uni0406" unicode="&#x406;" 
d="M190 100v600q0 25 17.5 42.5t42.5 17.5t42.5 -17.5t17.5 -42.5v-600q0 -25 -17.5 -42.5t-42.5 -17.5t-42.5 17.5t-17.5 42.5z" />
    <glyph glyph-name="afii10056" unicode="&#x407;" 
d="M190 100v600q0 25 17.5 42.5t42.5 17.5t42.5 -17.5t17.5 -42.5v-600q0 -25 -17.5 -42.5t-42.5 -17.5t-42.5 17.5t-17.5 42.5zM77 907q-17 18 -17 43t17 42q18 18 43 18t42 -18q18 -17 18 -42t-18 -43q-17 -17 -42 -17t-43 17zM337 907q-17 18 -17 43t17 42q18 18 43 18
t42 -18q18 -17 18 -42t-18 -43q-17 -17 -42 -17t-43 17z" />
    <glyph glyph-name="afii10057" unicode="&#x408;" horiz-adv-x="910" 
d="M160 325q0 25 17.5 42.5t42.5 17.5t42.5 -17.5t17.5 -42.5q0 -67 48 -117q50 -48 117 -48q68 0 116 48q49 49 49 117v375q0 25 17.5 42.5t42.5 17.5t42.5 -17.5t17.5 -42.5v-375q0 -118 -84 -202q-83 -83 -201 -83q-117 0 -202 83q-83 85 -83 202z" />
    <glyph glyph-name="afii10058" unicode="&#x409;" horiz-adv-x="1555" 
d="M790 100v540h-328l-22 -171l-20 -164q-37 -265 -210 -265q-25 0 -42.5 17.5t-17.5 42.5q0 24 15.5 42t35.5 18q41 3 66.5 39.5t32.5 95.5l50 400q3 29 19 47t42 18h439q25 0 42.5 -17.5t17.5 -42.5v-190h240q98 0 166 -69q69 -69 69 -166t-69 -166q-68 -69 -166 -69h-300
q-25 0 -42.5 17.5t-17.5 42.5zM910 390v-230h245q45 2 77 35q33 34 33 80t-33 79q-32 34 -78 36h-244z" />
    <glyph glyph-name="afii10059" unicode="&#x40a;" horiz-adv-x="1505" 
d="M860 390v-230h245q45 2 77 35q33 34 33 80t-33 79q-32 34 -78 36h-244zM1100 40h-300q-25 0 -42.5 17.5t-17.5 42.5v240h-430v-240q0 -25 -17.5 -42.5t-42.5 -17.5t-42.5 17.5t-17.5 42.5v600q0 25 17.5 42.5t42.5 17.5t42.5 -17.5t17.5 -42.5v-240h430v240
q0 25 17.5 42.5t42.5 17.5t42.5 -17.5t17.5 -42.5v-190h240q98 0 166 -69q69 -69 69 -166t-69 -166q-68 -69 -166 -69z" />
    <glyph glyph-name="afii10061" unicode="&#x40c;" horiz-adv-x="1040" 
d="M190 700q0 25 17.5 42.5t42.5 17.5t42.5 -17.5t17.5 -42.5v-240h175l283 283q25 28 64.5 12t37.5 -55q0 -22 -17 -42l-258 -258l257 -258q18 -18 18 -42q2 -39 -37.5 -55t-64.5 12l-283 283h-175v-240q0 -25 -17.5 -42.5t-42.5 -17.5t-42.5 17.5t-17.5 42.5v600z
M469 1006l100 174q13 21 36.5 27.5t45.5 -5.5q22 -13 28 -37t-6 -45l-100 -174q-13 -21 -36.5 -27.5t-45.5 5.5q-22 13 -28 37t6 45z" />
    <glyph glyph-name="afii10062" unicode="&#x40e;" horiz-adv-x="984" 
d="M315 40q-25 0 -42.5 17.5t-17.5 42.5t17.5 42.5t42.5 17.5q29 0 55 14t37 29l21 33l43 75l-294 351q-17 21 -14.5 43.5t21.5 40.5q19 16 44 14t40 -22l266 -318l179 310q12 22 36 28t46 -7q21 -13 27.5 -37t-5.5 -44l-280 -485q-43 -74 -95.5 -109.5t-126.5 -35.5z
M282 1000q0 25 17.5 42.5t42.5 17.5t42.5 -17.5t17.5 -42.5q0 -38 26 -64t64 -26t64 26t26 64q0 25 17.5 42.5t42.5 17.5t42.5 -17.5t17.5 -42.5q-2 -88 -63 -150q-61 -60 -147 -60q-88 0 -149 61t-61 149z" />
    <glyph glyph-name="afii10145" unicode="&#x40f;" horiz-adv-x="1050" 
d="M860 700v-600q0 -25 -17.5 -42.5t-42.5 -17.5h-215v-140q0 -25 -17.5 -42.5t-42.5 -17.5t-42.5 17.5t-17.5 42.5v140h-215q-25 0 -42.5 17.5t-17.5 42.5v600q0 25 17.5 42.5t42.5 17.5t42.5 -17.5t17.5 -42.5v-540h430v540q0 25 17.5 42.5t42.5 17.5t42.5 -17.5
t17.5 -42.5z" />
    <glyph glyph-name="afii10017" unicode="&#x410;" horiz-adv-x="1112" 
d="M157 129l347 602q19 29 52 29t52 -29l347 -602q7 -15 7 -29q0 -25 -17.5 -42.5t-42.5 -17.5q-35 0 -56 37l-65 113h-451l-65 -113q-21 -37 -55 -37q-25 0 -42.5 17.5t-17.5 42.5q0 16 7 29zM712 310l-156 271l-157 -271h313z" />
    <glyph glyph-name="afii10018" unicode="&#x411;" horiz-adv-x="1030" 
d="M190 100v600q0 25 17.5 42.5t42.5 17.5h500q25 0 42.5 -17.5t17.5 -42.5t-17.5 -42.5t-42.5 -17.5h-440v-180h340q86 0 148 -62t62 -148q0 -87 -62 -149q-61 -61 -148 -61h-400q-25 0 -42.5 17.5t-17.5 42.5zM653 340h-343v-180h343q36 2 61.5 28t25.5 62t-25.5 62
t-61.5 28z" />
    <glyph glyph-name="afii10019" unicode="&#x412;" horiz-adv-x="1030" 
d="M860 250q0 -86 -60 -147q-60 -62 -145 -63h-405q-25 0 -42.5 17.5t-17.5 42.5v600q0 25 17.5 42.5t42.5 17.5h405q84 -1 145 -64q60 -62 60 -146q0 -88 -63 -150q63 -62 63 -150zM650 640h-340v-180h343q36 2 61.5 28t25.5 62q0 38 -26 64t-64 26zM653 340h-343v-180h340
q38 0 64 26t26 64q0 36 -25.5 62t-61.5 28z" />
    <glyph glyph-name="afii10020" unicode="&#x413;" horiz-adv-x="910" 
d="M190 100v600q0 25 17.5 42.5t42.5 17.5h450q25 0 42.5 -17.5t17.5 -42.5t-17.5 -42.5t-42.5 -17.5h-390v-540q0 -25 -17.5 -42.5t-42.5 -17.5t-42.5 17.5t-17.5 42.5z" />
    <glyph glyph-name="afii10021" unicode="&#x414;" horiz-adv-x="1200" 
d="M150 -100v200q0 25 17.5 42.5t42.5 17.5h1q41 3 66.5 39.5t32.5 95.5l50 400q3 29 19 47t42 18h439q25 0 42.5 -17.5t17.5 -42.5v-540h70q25 0 42.5 -17.5t17.5 -42.5v-200q0 -25 -17.5 -42.5t-42.5 -17.5t-42.5 17.5t-17.5 42.5v140h-660v-140q0 -25 -17.5 -42.5
t-42.5 -17.5t-42.5 17.5t-17.5 42.5zM450 469l-20 -164q-13 -88 -39 -145h409v480h-328z" />
    <glyph glyph-name="afii10022" unicode="&#x415;" horiz-adv-x="980" 
d="M190 100v600q0 25 17.5 42.5t42.5 17.5h500q25 0 42.5 -17.5t17.5 -42.5t-17.5 -42.5t-42.5 -17.5h-440v-180h340q25 0 42.5 -17.5t17.5 -42.5t-17.5 -42.5t-42.5 -17.5h-340v-180h440q25 0 42.5 -17.5t17.5 -42.5t-17.5 -42.5t-42.5 -17.5h-500q-25 0 -42.5 17.5
t-17.5 42.5z" />
    <glyph glyph-name="afii10024" unicode="&#x416;" horiz-adv-x="1360" 
d="M620 100v240h-65l-283 -283q-17 -17 -42 -17t-43 17q-17 18 -17 43t17 42l258 258l-258 257q-17 17 -17 43q0 25 17.5 42.5t42.5 17.5q22 0 42 -17l283 -283h65v240q0 25 17.5 42.5t42.5 17.5t42.5 -17.5t17.5 -42.5v-240h65l283 283q20 17 42 17q39 0 54.5 -37
t-12.5 -66l-257 -257l258 -258q17 -20 17 -42q2 -39 -37.5 -55t-64.5 12l-283 283h-65v-240q0 -25 -17.5 -42.5t-42.5 -17.5t-42.5 17.5t-17.5 42.5z" />
    <glyph glyph-name="afii10025" unicode="&#x417;" horiz-adv-x="919" 
d="M465 340h-63q-25 0 -42.5 17.5t-17.5 42.5t17.5 42.5t42.5 17.5h55q180 0 180 90t-185 90q-101 0 -195 -38q-25 -9 -46.5 1t-28.5 36q-13 53 37 76q104 45 233 45q135 0 220 -56q85 -55 85 -154q0 -95 -79 -150q79 -57 79 -150q0 -99 -85 -154q-85 -56 -220 -56
q-130 0 -233 45q-24 9 -34.5 30t-2.5 46q8 26 29 36t46 1q94 -38 195 -38q185 0 185 90q0 86 -172 90z" />
    <glyph glyph-name="afii10026" unicode="&#x418;" horiz-adv-x="1100" 
d="M910 700v-600q0 -25 -17.5 -42.5t-42.5 -17.5t-42.5 17.5t-17.5 42.5v455l-497 -498q-17 -17 -43 -17q-25 0 -42.5 17.5t-17.5 42.5v600q0 25 17.5 42.5t42.5 17.5t42.5 -17.5t17.5 -42.5v-455l498 498q20 17 42 17q25 0 42.5 -17.5t17.5 -42.5z" />
    <glyph glyph-name="afii10027" unicode="&#x419;" horiz-adv-x="1100" 
d="M910 100q0 -25 -17.5 -42.5t-42.5 -17.5t-42.5 17.5t-17.5 42.5v455l-497 -498q-17 -17 -43 -17q-25 0 -42.5 17.5t-17.5 42.5v600q0 25 17.5 42.5t42.5 17.5t42.5 -17.5t17.5 -42.5v-455l498 498q20 17 42 17q25 0 42.5 -17.5t17.5 -42.5v-600zM340 1000q0 25 17.5 42.5
t42.5 17.5t42.5 -17.5t17.5 -42.5q0 -38 26 -64t64 -26t64 26t26 64q0 25 17.5 42.5t42.5 17.5t42.5 -17.5t17.5 -42.5q-2 -88 -63 -150q-61 -60 -147 -60q-88 0 -149 61t-61 149z" />
    <glyph glyph-name="afii10028" unicode="&#x41a;" horiz-adv-x="1040" 
d="M190 100v600q0 25 17.5 42.5t42.5 17.5t42.5 -17.5t17.5 -42.5v-240h175l283 283q25 28 64.5 12t37.5 -55q0 -22 -17 -42l-258 -258l257 -258q18 -18 18 -42q2 -39 -37.5 -55t-64.5 12l-283 283h-175v-240q0 -25 -17.5 -42.5t-42.5 -17.5t-42.5 17.5t-17.5 42.5z" />
    <glyph glyph-name="afii10029" unicode="&#x41b;" horiz-adv-x="1100" 
d="M790 100v540h-328l-22 -171l-20 -164q-37 -265 -210 -265q-25 0 -42.5 17.5t-17.5 42.5q0 24 15.5 42t35.5 18q41 3 66.5 39.5t32.5 95.5l50 400q3 29 19 47t42 18h439q25 0 42.5 -17.5t17.5 -42.5v-600q0 -25 -17.5 -42.5t-42.5 -17.5t-42.5 17.5t-17.5 42.5z" />
    <glyph glyph-name="afii10030" unicode="&#x41c;" horiz-adv-x="1200" 
d="M890 100v455l-248 -248q-17 -17 -42 -17q-26 0 -43 17l-247 248v-455q0 -25 -17.5 -42.5t-42.5 -17.5t-42.5 17.5t-17.5 42.5v600q0 25 17.5 42.5t42.5 17.5q22 0 42 -17l308 -308l307 307q29 28 66 12.5t37 -54.5v-600q0 -25 -17.5 -42.5t-42.5 -17.5t-42.5 17.5
t-17.5 42.5z" />
    <glyph glyph-name="afii10031" unicode="&#x41d;" horiz-adv-x="1050" 
d="M190 100v600q0 25 17.5 42.5t42.5 17.5t42.5 -17.5t17.5 -42.5v-240h430v240q0 25 17.5 42.5t42.5 17.5t42.5 -17.5t17.5 -42.5v-600q0 -25 -17.5 -42.5t-42.5 -17.5t-42.5 17.5t-17.5 42.5v240h-430v-240q0 -25 -17.5 -42.5t-42.5 -17.5t-42.5 17.5t-17.5 42.5z" />
    <glyph glyph-name="afii10032" unicode="&#x41e;" horiz-adv-x="1040" 
d="M350 569q-70 -70 -70 -169q0 -100 70 -170t170 -70q99 0 169 70q71 71 71 170q0 98 -71 169t-169 71q-99 0 -170 -71zM265 145q-105 107 -105 255q0 149 105 254q106 106 255 106t254 -106q106 -105 106 -254t-106 -255q-105 -105 -254 -105q-148 0 -255 105z" />
    <glyph glyph-name="afii10033" unicode="&#x41f;" horiz-adv-x="1050" 
d="M190 100v600q0 25 17.5 42.5t42.5 17.5h550q25 0 42.5 -17.5t17.5 -42.5v-600q0 -25 -17.5 -42.5t-42.5 -17.5t-42.5 17.5t-17.5 42.5v540h-430v-540q0 -25 -17.5 -42.5t-42.5 -17.5t-42.5 17.5t-17.5 42.5z" />
    <glyph glyph-name="afii10034" unicode="&#x420;" horiz-adv-x="955" 
d="M190 100v600q0 25 17.5 42.5t42.5 17.5h305q94 -1 162 -71q68 -68 68 -164q0 -97 -69 -166q-68 -69 -166 -69h-240v-190q0 -25 -17.5 -42.5t-42.5 -17.5t-42.5 17.5t-17.5 42.5zM555 640h-245v-230h240q47 0 81 34t34 81q0 46 -33 79q-31 34 -77 36z" />
    <glyph glyph-name="afii10035" unicode="&#x421;" horiz-adv-x="952" 
d="M520 760q141 0 247 -100q25 -22 25 -48q0 -25 -17.5 -42.5t-42.5 -17.5q-26 0 -43 17q-69 71 -169 71q-99 0 -170 -71q-70 -70 -70 -169q0 -100 70 -170t170 -70q99 0 169 70q18 18 43 18t42 -18q18 -17 18 -42t-18 -43q-105 -105 -254 -105q-148 0 -255 105
q-105 107 -105 255q0 149 105 254q106 106 255 106z" />
    <glyph glyph-name="afii10036" unicode="&#x422;" horiz-adv-x="1020" 
d="M450 100v540h-240q-25 0 -42.5 17.5t-17.5 42.5t17.5 42.5t42.5 17.5h600q25 0 42.5 -17.5t17.5 -42.5t-17.5 -42.5t-42.5 -17.5h-240v-540q0 -25 -17.5 -42.5t-42.5 -17.5t-42.5 17.5t-17.5 42.5z" />
    <glyph glyph-name="afii10037" unicode="&#x423;" horiz-adv-x="984" 
d="M315 160q31 0 57 15q6 4 11.5 8t9.5 6.5t8 7t6 6.5t5.5 7.5t4.5 7.5t5.5 9t5.5 9l43 75l-294 351q-17 21 -14.5 43.5t21.5 40.5q19 16 44 14t40 -22l266 -318l179 310q12 22 36 28t46 -7q21 -13 27.5 -37t-5.5 -44l-280 -485q-43 -74 -95.5 -109.5t-126.5 -35.5
q-25 0 -42.5 17.5t-17.5 42.5t17.5 42.5t42.5 17.5z" />
    <glyph glyph-name="afii10038" unicode="&#x424;" horiz-adv-x="1140" 
d="M160 400q0 105 74 182q73 76 181 78h95v40q0 25 17.5 42.5t42.5 17.5t42.5 -17.5t17.5 -42.5v-40h90q108 0 184 -76t76 -184q0 -106 -75 -183q-74 -76 -180 -77h-95v-40q0 -25 -17.5 -42.5t-42.5 -17.5t-42.5 17.5t-17.5 42.5v40h-95q-107 2 -181 77q-74 77 -74 183z
M510 540h-90q-58 0 -99 -41t-41 -99t41 -99t99 -41h90v280zM720 540h-90v-280h95q56 2 95 42q40 40 40 98t-41 99t-99 41z" />
    <glyph glyph-name="afii10039" unicode="&#x425;" horiz-adv-x="1060" 
d="M830 40q-26 0 -43 17l-257 258l-258 -258q-17 -17 -42 -17t-43 17q-17 18 -17 43t17 42l258 258l-258 257q-17 17 -17 43q0 25 17.5 42.5t42.5 17.5q22 0 42 -17l258 -258l258 258q20 17 42 17q39 0 54.5 -37t-12.5 -66l-257 -257l257 -258q18 -18 18 -42
q0 -25 -17.5 -42.5t-42.5 -17.5z" />
    <glyph glyph-name="afii10040" unicode="&#x426;" horiz-adv-x="1140" 
d="M190 100v600q0 25 17.5 42.5t42.5 17.5t42.5 -17.5t17.5 -42.5v-540h430v540q0 25 17.5 42.5t42.5 17.5t42.5 -17.5t17.5 -42.5v-540h70q25 0 42.5 -17.5t17.5 -42.5v-200q0 -25 -17.5 -42.5t-42.5 -17.5t-42.5 17.5t-17.5 42.5v140h-620q-25 0 -42.5 17.5t-17.5 42.5z
" />
    <glyph glyph-name="afii10041" unicode="&#x427;" horiz-adv-x="980" 
d="M170 550v150q0 25 17.5 42.5t42.5 17.5t42.5 -17.5t17.5 -42.5v-150q0 -80 55 -135t135 -55q79 0 134 55q56 56 56 135v150q0 25 17.5 42.5t42.5 17.5t42.5 -17.5t17.5 -42.5v-600q0 -25 -17.5 -42.5t-42.5 -17.5t-42.5 17.5t-17.5 42.5v205q-85 -65 -190 -65
q-128 0 -219 91t-91 219z" />
    <glyph glyph-name="afii10042" unicode="&#x428;" horiz-adv-x="1300" 
d="M590 160v540q0 25 17.5 42.5t42.5 17.5t42.5 -17.5t17.5 -42.5v-540h280v540q0 25 17.5 42.5t42.5 17.5t42.5 -17.5t17.5 -42.5v-600q0 -25 -17.5 -42.5t-42.5 -17.5h-800q-25 0 -42.5 17.5t-17.5 42.5v600q0 25 17.5 42.5t42.5 17.5t42.5 -17.5t17.5 -42.5v-540h280z
" />
    <glyph glyph-name="afii10043" unicode="&#x429;" horiz-adv-x="1390" 
d="M310 160h280v540q0 25 17.5 42.5t42.5 17.5t42.5 -17.5t17.5 -42.5v-540h280v540q0 25 17.5 42.5t42.5 17.5t42.5 -17.5t17.5 -42.5v-540h70q25 0 42.5 -17.5t17.5 -42.5v-200q0 -25 -17.5 -42.5t-42.5 -17.5t-42.5 17.5t-17.5 42.5v140h-870q-25 0 -42.5 17.5
t-17.5 42.5v600q0 25 17.5 42.5t42.5 17.5t42.5 -17.5t17.5 -42.5v-540z" />
    <glyph glyph-name="afii10044" unicode="&#x42a;" horiz-adv-x="1165" 
d="M400 100v540h-190q-25 0 -42.5 17.5t-17.5 42.5t17.5 42.5t42.5 17.5h250q25 0 42.5 -17.5t17.5 -42.5v-190h240q98 0 166 -69q69 -69 69 -166t-69 -166q-68 -69 -166 -69h-300q-25 0 -42.5 17.5t-17.5 42.5zM520 390v-230h245q45 2 77 35q33 34 33 80t-33 79
q-32 34 -78 36h-244z" />
    <glyph glyph-name="afii10045" unicode="&#x42b;" horiz-adv-x="1250" 
d="M190 100v600q0 25 17.5 42.5t42.5 17.5t42.5 -17.5t17.5 -42.5v-190h240q98 0 166 -69q69 -69 69 -166t-69 -166q-68 -69 -166 -69h-300q-25 0 -42.5 17.5t-17.5 42.5zM940 100v600q0 25 17.5 42.5t42.5 17.5t42.5 -17.5t17.5 -42.5v-600q0 -25 -17.5 -42.5t-42.5 -17.5
t-42.5 17.5t-17.5 42.5zM310 390v-230h245q45 2 77 35q33 34 33 80t-33 79q-32 34 -78 36h-244z" />
    <glyph glyph-name="afii10046" unicode="&#x42c;" horiz-adv-x="955" 
d="M190 100v600q0 25 17.5 42.5t42.5 17.5t42.5 -17.5t17.5 -42.5v-190h240q98 0 166 -69q69 -69 69 -166t-69 -166q-68 -69 -166 -69h-300q-25 0 -42.5 17.5t-17.5 42.5zM310 390v-230h245q45 2 77 35q33 34 33 80t-33 79q-32 34 -78 36h-244z" />
    <glyph glyph-name="afii10047" unicode="&#x42d;" horiz-adv-x="952" 
d="M664 340h-332q-25 0 -42.5 17.5t-17.5 42.5t17.5 42.5t42.5 17.5h332q-19 77 -85 129q-65 51 -147 51q-100 0 -169 -71q-20 -17 -43 -17q-40 0 -55 37t20 71q104 100 247 100q149 0 254 -106q106 -105 106 -254t-106 -255q-105 -105 -254 -105t-254 105q-18 18 -18 43
t17 42q18 18 43 18t43 -18q70 -70 169 -70q82 0 147 51q66 52 85 129z" />
    <glyph glyph-name="afii10048" unicode="&#x42e;" horiz-adv-x="1370" 
d="M190 100v5v595q0 25 17.5 42.5t42.5 17.5t42.5 -17.5t17.5 -42.5v-240h185q21 129 121 214q101 86 234 86q149 0 254 -106q106 -105 106 -254t-106 -255q-105 -105 -254 -105q-134 0 -234 85t-121 215h-185v-235v-5q0 -25 -17.5 -42.5t-42.5 -17.5t-42.5 17.5t-17.5 42.5
zM610 405v-10q2 -98 72 -167q71 -68 168 -68q99 0 169 70q71 71 71 170q0 98 -71 169t-169 71t-168 -69q-71 -69 -72 -166z" />
    <glyph glyph-name="afii10049" unicode="&#x42f;" horiz-adv-x="980" 
d="M790 700v-600q0 -25 -17.5 -42.5t-42.5 -17.5t-42.5 17.5t-17.5 42.5v190h-165l-233 -233q-19 -17 -42 -17t-42.5 17.5t-17.5 42.5q0 22 17 42l163 162q-69 25 -112 85q-43 61 -43 136q0 97 67 164q68 69 163 71h305q25 0 42.5 -17.5t17.5 -42.5zM670 410v230h-245
q-45 -2 -78 -36q-32 -34 -32 -79q0 -47 34 -81t81 -34h240z" />
    <glyph glyph-name="afii10065" unicode="&#x430;" horiz-adv-x="1112" 
d="M157 129l347 602q19 29 52 29t52 -29l347 -602q7 -15 7 -29q0 -25 -17.5 -42.5t-42.5 -17.5q-35 0 -56 37l-65 113h-451l-65 -113q-21 -37 -55 -37q-25 0 -42.5 17.5t-17.5 42.5q0 16 7 29zM712 310l-156 271l-157 -271h313z" />
    <glyph glyph-name="afii10066" unicode="&#x431;" horiz-adv-x="1030" 
d="M190 100v600q0 25 17.5 42.5t42.5 17.5h500q25 0 42.5 -17.5t17.5 -42.5t-17.5 -42.5t-42.5 -17.5h-440v-180h340q86 0 148 -62t62 -148q0 -87 -62 -149q-61 -61 -148 -61h-400q-25 0 -42.5 17.5t-17.5 42.5zM653 340h-343v-180h343q36 2 61.5 28t25.5 62t-25.5 62
t-61.5 28z" />
    <glyph glyph-name="afii10067" unicode="&#x432;" horiz-adv-x="1030" 
d="M860 250q0 -86 -60 -147q-60 -62 -145 -63h-405q-25 0 -42.5 17.5t-17.5 42.5v600q0 25 17.5 42.5t42.5 17.5h405q84 -1 145 -64q60 -62 60 -146q0 -88 -63 -150q63 -62 63 -150zM650 640h-340v-180h343q36 2 61.5 28t25.5 62q0 38 -26 64t-64 26zM653 340h-343v-180h340
q38 0 64 26t26 64q0 36 -25.5 62t-61.5 28z" />
    <glyph glyph-name="afii10068" unicode="&#x433;" horiz-adv-x="910" 
d="M190 100v600q0 25 17.5 42.5t42.5 17.5h450q25 0 42.5 -17.5t17.5 -42.5t-17.5 -42.5t-42.5 -17.5h-390v-540q0 -25 -17.5 -42.5t-42.5 -17.5t-42.5 17.5t-17.5 42.5z" />
    <glyph glyph-name="afii10069" unicode="&#x434;" horiz-adv-x="1200" 
d="M150 -100v200q0 25 17.5 42.5t42.5 17.5h1q41 3 66.5 39.5t32.5 95.5l50 400q3 29 19 47t42 18h439q25 0 42.5 -17.5t17.5 -42.5v-540h70q25 0 42.5 -17.5t17.5 -42.5v-200q0 -25 -17.5 -42.5t-42.5 -17.5t-42.5 17.5t-17.5 42.5v140h-660v-140q0 -25 -17.5 -42.5
t-42.5 -17.5t-42.5 17.5t-17.5 42.5zM450 469l-20 -164q-13 -88 -39 -145h409v480h-328z" />
    <glyph glyph-name="afii10070" unicode="&#x435;" horiz-adv-x="980" 
d="M190 100v600q0 25 17.5 42.5t42.5 17.5h500q25 0 42.5 -17.5t17.5 -42.5t-17.5 -42.5t-42.5 -17.5h-440v-180h340q25 0 42.5 -17.5t17.5 -42.5t-17.5 -42.5t-42.5 -17.5h-340v-180h440q25 0 42.5 -17.5t17.5 -42.5t-17.5 -42.5t-42.5 -17.5h-500q-25 0 -42.5 17.5
t-17.5 42.5z" />
    <glyph glyph-name="afii10072" unicode="&#x436;" horiz-adv-x="1360" 
d="M620 100v240h-65l-283 -283q-17 -17 -42 -17t-43 17q-17 18 -17 43t17 42l258 258l-258 257q-17 17 -17 43q0 25 17.5 42.5t42.5 17.5q22 0 42 -17l283 -283h65v240q0 25 17.5 42.5t42.5 17.5t42.5 -17.5t17.5 -42.5v-240h65l283 283q20 17 42 17q39 0 54.5 -37
t-12.5 -66l-257 -257l258 -258q17 -20 17 -42q2 -39 -37.5 -55t-64.5 12l-283 283h-65v-240q0 -25 -17.5 -42.5t-42.5 -17.5t-42.5 17.5t-17.5 42.5z" />
    <glyph glyph-name="afii10073" unicode="&#x437;" horiz-adv-x="919" 
d="M465 340h-63q-25 0 -42.5 17.5t-17.5 42.5t17.5 42.5t42.5 17.5h55q180 0 180 90t-185 90q-101 0 -195 -38q-25 -9 -46.5 1t-28.5 36q-13 53 37 76q104 45 233 45q135 0 220 -56q85 -55 85 -154q0 -95 -79 -150q79 -57 79 -150q0 -99 -85 -154q-85 -56 -220 -56
q-130 0 -233 45q-24 9 -34.5 30t-2.5 46q8 26 29 36t46 1q94 -38 195 -38q185 0 185 90q0 86 -172 90z" />
    <glyph glyph-name="afii10074" unicode="&#x438;" horiz-adv-x="1100" 
d="M910 700v-600q0 -25 -17.5 -42.5t-42.5 -17.5t-42.5 17.5t-17.5 42.5v455l-497 -498q-17 -17 -43 -17q-25 0 -42.5 17.5t-17.5 42.5v600q0 25 17.5 42.5t42.5 17.5t42.5 -17.5t17.5 -42.5v-455l498 498q20 17 42 17q25 0 42.5 -17.5t17.5 -42.5z" />
    <glyph glyph-name="afii10075" unicode="&#x439;" horiz-adv-x="1100" 
d="M910 100q0 -25 -17.5 -42.5t-42.5 -17.5t-42.5 17.5t-17.5 42.5v455l-497 -498q-17 -17 -43 -17q-25 0 -42.5 17.5t-17.5 42.5v600q0 25 17.5 42.5t42.5 17.5t42.5 -17.5t17.5 -42.5v-455l498 498q20 17 42 17q25 0 42.5 -17.5t17.5 -42.5v-600zM340 1000q0 25 17.5 42.5
t42.5 17.5t42.5 -17.5t17.5 -42.5q0 -38 26 -64t64 -26t64 26t26 64q0 25 17.5 42.5t42.5 17.5t42.5 -17.5t17.5 -42.5q-2 -88 -63 -150q-61 -60 -147 -60q-88 0 -149 61t-61 149z" />
    <glyph glyph-name="afii10076" unicode="&#x43a;" horiz-adv-x="1040" 
d="M190 100v600q0 25 17.5 42.5t42.5 17.5t42.5 -17.5t17.5 -42.5v-240h175l283 283q25 28 64.5 12t37.5 -55q0 -22 -17 -42l-258 -258l257 -258q18 -18 18 -42q2 -39 -37.5 -55t-64.5 12l-283 283h-175v-240q0 -25 -17.5 -42.5t-42.5 -17.5t-42.5 17.5t-17.5 42.5z" />
    <glyph glyph-name="afii10077" unicode="&#x43b;" horiz-adv-x="1100" 
d="M790 100v540h-328l-22 -171l-20 -164q-37 -265 -210 -265q-25 0 -42.5 17.5t-17.5 42.5q0 24 15.5 42t35.5 18q41 3 66.5 39.5t32.5 95.5l50 400q3 29 19 47t42 18h439q25 0 42.5 -17.5t17.5 -42.5v-600q0 -25 -17.5 -42.5t-42.5 -17.5t-42.5 17.5t-17.5 42.5z" />
    <glyph glyph-name="afii10078" unicode="&#x43c;" horiz-adv-x="1200" 
d="M890 100v455l-248 -248q-17 -17 -42 -17q-26 0 -43 17l-247 248v-455q0 -25 -17.5 -42.5t-42.5 -17.5t-42.5 17.5t-17.5 42.5v600q0 25 17.5 42.5t42.5 17.5q22 0 42 -17l308 -308l307 307q29 28 66 12.5t37 -54.5v-600q0 -25 -17.5 -42.5t-42.5 -17.5t-42.5 17.5
t-17.5 42.5z" />
    <glyph glyph-name="afii10079" unicode="&#x43d;" horiz-adv-x="1050" 
d="M190 100v600q0 25 17.5 42.5t42.5 17.5t42.5 -17.5t17.5 -42.5v-240h430v240q0 25 17.5 42.5t42.5 17.5t42.5 -17.5t17.5 -42.5v-600q0 -25 -17.5 -42.5t-42.5 -17.5t-42.5 17.5t-17.5 42.5v240h-430v-240q0 -25 -17.5 -42.5t-42.5 -17.5t-42.5 17.5t-17.5 42.5z" />
    <glyph glyph-name="afii10080" unicode="&#x43e;" horiz-adv-x="1040" 
d="M350 569q-70 -70 -70 -169q0 -100 70 -170t170 -70q99 0 169 70q71 71 71 170q0 98 -71 169t-169 71q-99 0 -170 -71zM265 145q-105 107 -105 255q0 149 105 254q106 106 255 106t254 -106q106 -105 106 -254t-106 -255q-105 -105 -254 -105q-148 0 -255 105z" />
    <glyph glyph-name="afii10081" unicode="&#x43f;" horiz-adv-x="1050" 
d="M190 100v600q0 25 17.5 42.5t42.5 17.5h550q25 0 42.5 -17.5t17.5 -42.5v-600q0 -25 -17.5 -42.5t-42.5 -17.5t-42.5 17.5t-17.5 42.5v540h-430v-540q0 -25 -17.5 -42.5t-42.5 -17.5t-42.5 17.5t-17.5 42.5z" />
    <glyph glyph-name="afii10082" unicode="&#x440;" horiz-adv-x="955" 
d="M190 100v600q0 25 17.5 42.5t42.5 17.5h305q94 -1 162 -71q68 -68 68 -164q0 -97 -69 -166q-68 -69 -166 -69h-240v-190q0 -25 -17.5 -42.5t-42.5 -17.5t-42.5 17.5t-17.5 42.5zM555 640h-245v-230h240q47 0 81 34t34 81q0 46 -33 79q-31 34 -77 36z" />
    <glyph glyph-name="afii10083" unicode="&#x441;" horiz-adv-x="952" 
d="M520 760q141 0 247 -100q25 -22 25 -48q0 -25 -17.5 -42.5t-42.5 -17.5q-26 0 -43 17q-69 71 -169 71q-99 0 -170 -71q-70 -70 -70 -169q0 -100 70 -170t170 -70q99 0 169 70q18 18 43 18t42 -18q18 -17 18 -42t-18 -43q-105 -105 -254 -105q-148 0 -255 105
q-105 107 -105 255q0 149 105 254q106 106 255 106z" />
    <glyph glyph-name="afii10084" unicode="&#x442;" horiz-adv-x="1020" 
d="M450 100v540h-240q-25 0 -42.5 17.5t-17.5 42.5t17.5 42.5t42.5 17.5h600q25 0 42.5 -17.5t17.5 -42.5t-17.5 -42.5t-42.5 -17.5h-240v-540q0 -25 -17.5 -42.5t-42.5 -17.5t-42.5 17.5t-17.5 42.5z" />
    <glyph glyph-name="afii10085" unicode="&#x443;" horiz-adv-x="984" 
d="M315 160q31 0 57 15q6 4 11.5 8t9.5 6.5t8 7t6 6.5t5.5 7.5t4.5 7.5t5.5 9t5.5 9l43 75l-294 351q-17 21 -14.5 43.5t21.5 40.5q19 16 44 14t40 -22l266 -318l179 310q12 22 36 28t46 -7q21 -13 27.5 -37t-5.5 -44l-280 -485q-43 -74 -95.5 -109.5t-126.5 -35.5
q-25 0 -42.5 17.5t-17.5 42.5t17.5 42.5t42.5 17.5z" />
    <glyph glyph-name="afii10086" unicode="&#x444;" horiz-adv-x="1140" 
d="M160 400q0 105 74 182q73 76 181 78h95v40q0 25 17.5 42.5t42.5 17.5t42.5 -17.5t17.5 -42.5v-40h90q108 0 184 -76t76 -184q0 -106 -75 -183q-74 -76 -180 -77h-95v-40q0 -25 -17.5 -42.5t-42.5 -17.5t-42.5 17.5t-17.5 42.5v40h-95q-107 2 -181 77q-74 77 -74 183z
M510 540h-90q-58 0 -99 -41t-41 -99t41 -99t99 -41h90v280zM720 540h-90v-280h95q56 2 95 42q40 40 40 98t-41 99t-99 41z" />
    <glyph glyph-name="afii10087" unicode="&#x445;" horiz-adv-x="1060" 
d="M830 40q-26 0 -43 17l-257 258l-258 -258q-17 -17 -42 -17t-43 17q-17 18 -17 43t17 42l258 258l-258 257q-17 17 -17 43q0 25 17.5 42.5t42.5 17.5q22 0 42 -17l258 -258l258 258q20 17 42 17q39 0 54.5 -37t-12.5 -66l-257 -257l257 -258q18 -18 18 -42
q0 -25 -17.5 -42.5t-42.5 -17.5z" />
    <glyph glyph-name="afii10088" unicode="&#x446;" horiz-adv-x="1140" 
d="M190 100v600q0 25 17.5 42.5t42.5 17.5t42.5 -17.5t17.5 -42.5v-540h430v540q0 25 17.5 42.5t42.5 17.5t42.5 -17.5t17.5 -42.5v-540h70q25 0 42.5 -17.5t17.5 -42.5v-200q0 -25 -17.5 -42.5t-42.5 -17.5t-42.5 17.5t-17.5 42.5v140h-620q-25 0 -42.5 17.5t-17.5 42.5z
" />
    <glyph glyph-name="afii10089" unicode="&#x447;" horiz-adv-x="980" 
d="M170 550v150q0 25 17.5 42.5t42.5 17.5t42.5 -17.5t17.5 -42.5v-150q0 -80 55 -135t135 -55q79 0 134 55q56 56 56 135v150q0 25 17.5 42.5t42.5 17.5t42.5 -17.5t17.5 -42.5v-600q0 -25 -17.5 -42.5t-42.5 -17.5t-42.5 17.5t-17.5 42.5v205q-85 -65 -190 -65
q-128 0 -219 91t-91 219z" />
    <glyph glyph-name="afii10090" unicode="&#x448;" horiz-adv-x="1300" 
d="M590 160v540q0 25 17.5 42.5t42.5 17.5t42.5 -17.5t17.5 -42.5v-540h280v540q0 25 17.5 42.5t42.5 17.5t42.5 -17.5t17.5 -42.5v-600q0 -25 -17.5 -42.5t-42.5 -17.5h-800q-25 0 -42.5 17.5t-17.5 42.5v600q0 25 17.5 42.5t42.5 17.5t42.5 -17.5t17.5 -42.5v-540h280z
" />
    <glyph glyph-name="afii10091" unicode="&#x449;" horiz-adv-x="1390" 
d="M310 160h280v540q0 25 17.5 42.5t42.5 17.5t42.5 -17.5t17.5 -42.5v-540h280v540q0 25 17.5 42.5t42.5 17.5t42.5 -17.5t17.5 -42.5v-540h70q25 0 42.5 -17.5t17.5 -42.5v-200q0 -25 -17.5 -42.5t-42.5 -17.5t-42.5 17.5t-17.5 42.5v140h-870q-25 0 -42.5 17.5
t-17.5 42.5v600q0 25 17.5 42.5t42.5 17.5t42.5 -17.5t17.5 -42.5v-540z" />
    <glyph glyph-name="afii10092" unicode="&#x44a;" horiz-adv-x="1165" 
d="M400 100v540h-190q-25 0 -42.5 17.5t-17.5 42.5t17.5 42.5t42.5 17.5h250q25 0 42.5 -17.5t17.5 -42.5v-190h240q98 0 166 -69q69 -69 69 -166t-69 -166q-68 -69 -166 -69h-300q-25 0 -42.5 17.5t-17.5 42.5zM520 390v-230h245q45 2 77 35q33 34 33 80t-33 79
q-32 34 -78 36h-244z" />
    <glyph glyph-name="afii10093" unicode="&#x44b;" horiz-adv-x="1250" 
d="M190 100v600q0 25 17.5 42.5t42.5 17.5t42.5 -17.5t17.5 -42.5v-190h240q98 0 166 -69q69 -69 69 -166t-69 -166q-68 -69 -166 -69h-300q-25 0 -42.5 17.5t-17.5 42.5zM940 100v600q0 25 17.5 42.5t42.5 17.5t42.5 -17.5t17.5 -42.5v-600q0 -25 -17.5 -42.5t-42.5 -17.5
t-42.5 17.5t-17.5 42.5zM310 390v-230h245q45 2 77 35q33 34 33 80t-33 79q-32 34 -78 36h-244z" />
    <glyph glyph-name="afii10094" unicode="&#x44c;" horiz-adv-x="955" 
d="M190 100v600q0 25 17.5 42.5t42.5 17.5t42.5 -17.5t17.5 -42.5v-190h240q98 0 166 -69q69 -69 69 -166t-69 -166q-68 -69 -166 -69h-300q-25 0 -42.5 17.5t-17.5 42.5zM310 390v-230h245q45 2 77 35q33 34 33 80t-33 79q-32 34 -78 36h-244z" />
    <glyph glyph-name="afii10095" unicode="&#x44d;" horiz-adv-x="952" 
d="M664 340h-332q-25 0 -42.5 17.5t-17.5 42.5t17.5 42.5t42.5 17.5h332q-19 77 -85 129q-65 51 -147 51q-100 0 -169 -71q-20 -17 -43 -17q-40 0 -55 37t20 71q104 100 247 100q149 0 254 -106q106 -105 106 -254t-106 -255q-105 -105 -254 -105t-254 105q-18 18 -18 43
t17 42q18 18 43 18t43 -18q70 -70 169 -70q82 0 147 51q66 52 85 129z" />
    <glyph glyph-name="afii10096" unicode="&#x44e;" horiz-adv-x="1370" 
d="M190 100v5v595q0 25 17.5 42.5t42.5 17.5t42.5 -17.5t17.5 -42.5v-240h185q21 129 121 214q101 86 234 86q149 0 254 -106q106 -105 106 -254t-106 -255q-105 -105 -254 -105q-134 0 -234 85t-121 215h-185v-235v-5q0 -25 -17.5 -42.5t-42.5 -17.5t-42.5 17.5t-17.5 42.5
zM610 405v-10q2 -98 72 -167q71 -68 168 -68q99 0 169 70q71 71 71 170q0 98 -71 169t-169 71t-168 -69q-71 -69 -72 -166z" />
    <glyph glyph-name="afii10097" unicode="&#x44f;" horiz-adv-x="980" 
d="M790 700v-600q0 -25 -17.5 -42.5t-42.5 -17.5t-42.5 17.5t-17.5 42.5v190h-165l-233 -233q-19 -17 -42 -17t-42.5 17.5t-17.5 42.5q0 22 17 42l163 162q-69 25 -112 85q-43 61 -43 136q0 97 67 164q68 69 163 71h305q25 0 42.5 -17.5t17.5 -42.5zM670 410v230h-245
q-45 -2 -78 -36q-32 -34 -32 -79q0 -47 34 -81t81 -34h240z" />
    <glyph glyph-name="afii10071" unicode="&#x451;" horiz-adv-x="980" 
d="M307 907q-17 18 -17 43t17 42q18 18 43 18t42 -18q18 -17 18 -42t-18 -43q-17 -17 -42 -17t-43 17zM607 907q-17 18 -17 43t17 42q18 18 43 18t42 -18q18 -17 18 -42t-18 -43q-17 -17 -42 -17t-43 17zM190 100v600q0 25 17.5 42.5t42.5 17.5h500q25 0 42.5 -17.5
t17.5 -42.5t-17.5 -42.5t-42.5 -17.5h-440v-180h340q25 0 42.5 -17.5t17.5 -42.5t-17.5 -42.5t-42.5 -17.5h-340v-180h440q25 0 42.5 -17.5t17.5 -42.5t-17.5 -42.5t-42.5 -17.5h-500q-25 0 -42.5 17.5t-17.5 42.5z" />
    <glyph glyph-name="afii10100" unicode="&#x453;" horiz-adv-x="910" 
d="M190 100v600q0 25 17.5 42.5t42.5 17.5h450q25 0 42.5 -17.5t17.5 -42.5t-17.5 -42.5t-42.5 -17.5h-390v-540q0 -25 -17.5 -42.5t-42.5 -17.5t-42.5 17.5t-17.5 42.5zM439 1006l100 174q13 21 36.5 27.5t45.5 -5.5q22 -13 28 -37t-6 -45l-100 -174q-13 -21 -36.5 -27.5
t-45.5 5.5q-22 13 -28 37t6 45z" />
    <glyph glyph-name="afii10101" unicode="&#x454;" horiz-adv-x="952" 
d="M620 340h-332q19 -77 85 -129q65 -51 147 -51q99 0 169 70q18 18 43 18t42 -18q18 -17 18 -42t-18 -43q-105 -105 -254 -105q-148 0 -255 105q-105 107 -105 255q0 149 105 254q106 106 255 106q143 0 247 -100q35 -34 20 -71t-55 -37q-23 0 -43 17q-69 71 -169 71
q-82 0 -147 -51q-66 -52 -85 -129h332q25 0 42.5 -17.5t17.5 -42.5t-17.5 -42.5t-42.5 -17.5z" />
    <glyph glyph-name="afii10102" unicode="&#x455;" horiz-adv-x="950" 
d="M449 160h30q185 0 185 90t-185 90q-139 0 -222 53t-83 157q0 98 84 154q86 56 221 56q129 0 233 -45q25 -11 35.5 -32t1.5 -44q-21 -53 -75 -37q-94 38 -195 38q-185 0 -185 -90t185 -90q139 0 222 -53t83 -157q0 -99 -85 -154q-85 -56 -220 -56h-30q-128 0 -233 44
q-23 8 -34.5 31.5t-2.5 46.5q10 25 31.5 34.5t44.5 1.5q102 -38 194 -38z" />
    <glyph glyph-name="afii10103" unicode="&#x456;" 
d="M190 100v600q0 25 17.5 42.5t42.5 17.5t42.5 -17.5t17.5 -42.5v-600q0 -25 -17.5 -42.5t-42.5 -17.5t-42.5 17.5t-17.5 42.5z" />
    <glyph glyph-name="afii10104" unicode="&#x457;" 
d="M190 100v600q0 25 17.5 42.5t42.5 17.5t42.5 -17.5t17.5 -42.5v-600q0 -25 -17.5 -42.5t-42.5 -17.5t-42.5 17.5t-17.5 42.5zM77 907q-17 18 -17 43t17 42q18 18 43 18t42 -18q18 -17 18 -42t-18 -43q-17 -17 -42 -17t-43 17zM337 907q-17 18 -17 43t17 42q18 18 43 18
t42 -18q18 -17 18 -42t-18 -43q-17 -17 -42 -17t-43 17z" />
    <glyph glyph-name="afii10105" unicode="&#x458;" horiz-adv-x="910" 
d="M160 325q0 25 17.5 42.5t42.5 17.5t42.5 -17.5t17.5 -42.5q0 -67 48 -117q50 -48 117 -48q68 0 116 48q49 49 49 117v375q0 25 17.5 42.5t42.5 17.5t42.5 -17.5t17.5 -42.5v-375q0 -118 -84 -202q-83 -83 -201 -83q-117 0 -202 83q-83 85 -83 202z" />
    <glyph glyph-name="afii10106" unicode="&#x459;" horiz-adv-x="1555" 
d="M790 100v540h-328l-22 -171l-20 -164q-37 -265 -210 -265q-25 0 -42.5 17.5t-17.5 42.5q0 24 15.5 42t35.5 18q41 3 66.5 39.5t32.5 95.5l50 400q3 29 19 47t42 18h439q25 0 42.5 -17.5t17.5 -42.5v-190h240q98 0 166 -69q69 -69 69 -166t-69 -166q-68 -69 -166 -69h-300
q-25 0 -42.5 17.5t-17.5 42.5zM910 390v-230h245q45 2 77 35q33 34 33 80t-33 79q-32 34 -78 36h-244z" />
    <glyph glyph-name="afii10107" unicode="&#x45a;" horiz-adv-x="1505" 
d="M860 390v-230h245q45 2 77 35q33 34 33 80t-33 79q-32 34 -78 36h-244zM1100 40h-300q-25 0 -42.5 17.5t-17.5 42.5v240h-430v-240q0 -25 -17.5 -42.5t-42.5 -17.5t-42.5 17.5t-17.5 42.5v600q0 25 17.5 42.5t42.5 17.5t42.5 -17.5t17.5 -42.5v-240h430v240
q0 25 17.5 42.5t42.5 17.5t42.5 -17.5t17.5 -42.5v-190h240q98 0 166 -69q69 -69 69 -166t-69 -166q-68 -69 -166 -69z" />
    <glyph glyph-name="afii10109" unicode="&#x45c;" horiz-adv-x="1040" 
d="M190 700q0 25 17.5 42.5t42.5 17.5t42.5 -17.5t17.5 -42.5v-240h175l283 283q25 28 64.5 12t37.5 -55q0 -22 -17 -42l-258 -258l257 -258q18 -18 18 -42q2 -39 -37.5 -55t-64.5 12l-283 283h-175v-240q0 -25 -17.5 -42.5t-42.5 -17.5t-42.5 17.5t-17.5 42.5v600z
M469 1006l100 174q13 21 36.5 27.5t45.5 -5.5q22 -13 28 -37t-6 -45l-100 -174q-13 -21 -36.5 -27.5t-45.5 5.5q-22 13 -28 37t6 45z" />
    <glyph glyph-name="afii10110" unicode="&#x45e;" horiz-adv-x="984" 
d="M315 40q-25 0 -42.5 17.5t-17.5 42.5t17.5 42.5t42.5 17.5q29 0 55 14t37 29l21 33l43 75l-294 351q-17 21 -14.5 43.5t21.5 40.5q19 16 44 14t40 -22l266 -318l179 310q12 22 36 28t46 -7q21 -13 27.5 -37t-5.5 -44l-280 -485q-43 -74 -95.5 -109.5t-126.5 -35.5z
M282 1000q0 25 17.5 42.5t42.5 17.5t42.5 -17.5t17.5 -42.5q0 -38 26 -64t64 -26t64 26t26 64q0 25 17.5 42.5t42.5 17.5t42.5 -17.5t17.5 -42.5q-2 -88 -63 -150q-61 -60 -147 -60q-88 0 -149 61t-61 149z" />
    <glyph glyph-name="afii10193" unicode="&#x45f;" horiz-adv-x="1050" 
d="M860 700v-600q0 -25 -17.5 -42.5t-42.5 -17.5h-215v-140q0 -25 -17.5 -42.5t-42.5 -17.5t-42.5 17.5t-17.5 42.5v140h-215q-25 0 -42.5 17.5t-17.5 42.5v600q0 25 17.5 42.5t42.5 17.5t42.5 -17.5t17.5 -42.5v-540h430v540q0 25 17.5 42.5t42.5 17.5t42.5 -17.5
t17.5 -42.5z" />
    <glyph glyph-name="afii10050" unicode="&#x490;" horiz-adv-x="910" 
d="M760 900v-200q0 -25 -17.5 -42.5t-42.5 -17.5h-390v-540q0 -25 -17.5 -42.5t-42.5 -17.5t-42.5 17.5t-17.5 42.5v600q0 25 17.5 42.5t42.5 17.5h390v140q0 25 17.5 42.5t42.5 17.5t42.5 -17.5t17.5 -42.5z" />
    <glyph glyph-name="afii10098" unicode="&#x491;" horiz-adv-x="910" 
d="M760 900v-200q0 -25 -17.5 -42.5t-42.5 -17.5h-390v-540q0 -25 -17.5 -42.5t-42.5 -17.5t-42.5 17.5t-17.5 42.5v600q0 25 17.5 42.5t42.5 17.5h390v140q0 25 17.5 42.5t42.5 17.5t42.5 -17.5t17.5 -42.5z" />
    <glyph glyph-name="endash" unicode="&#x2013;" horiz-adv-x="1050" 
d="M800 340h-550q-25 0 -42.5 17.5t-17.5 42.5t17.5 42.5t42.5 17.5h550q25 0 42.5 -17.5t17.5 -42.5t-17.5 -42.5t-42.5 -17.5z" />
    <glyph glyph-name="emdash" unicode="&#x2014;" horiz-adv-x="1200" 
d="M950 340h-700q-25 0 -42.5 17.5t-17.5 42.5t17.5 42.5t42.5 17.5h700q25 0 42.5 -17.5t17.5 -42.5t-17.5 -42.5t-42.5 -17.5z" />
    <glyph glyph-name="quoteleft" unicode="&#x2018;" horiz-adv-x="572" 
d="M175 656l100 174q13 21 36.5 27.5t45.5 -5.5q22 -13 28 -37t-6 -45l-100 -174q-13 -21 -36.5 -27.5t-45.5 5.5q-22 13 -28 37t6 45z" />
    <glyph glyph-name="quoteright" unicode="&#x2019;" horiz-adv-x="572" 
d="M175 656l100 174q13 21 36.5 27.5t45.5 -5.5q22 -13 28 -37t-6 -45l-100 -174q-13 -21 -36.5 -27.5t-45.5 5.5q-22 13 -28 37t6 45z" />
    <glyph glyph-name="quotesinglbase" unicode="&#x201a;" horiz-adv-x="572" 
d="M175 -44l100 174q13 21 36.5 27.5t45.5 -5.5q22 -13 28 -37t-6 -45l-100 -174q-13 -21 -36.5 -27.5t-45.5 5.5q-22 13 -28 37t6 45z" />
    <glyph glyph-name="quotedblleft" unicode="&#x201c;" horiz-adv-x="872" 
d="M175 656l100 174q13 21 36.5 27.5t45.5 -5.5q22 -13 28 -37t-6 -45l-100 -174q-13 -21 -36.5 -27.5t-45.5 5.5q-22 13 -28 37t6 45zM475 656l100 174q13 21 36.5 27.5t45.5 -5.5q22 -13 28 -37t-6 -45l-100 -174q-13 -21 -36.5 -27.5t-45.5 5.5q-22 13 -28 37t6 45z" />
    <glyph glyph-name="quotedblright" unicode="&#x201d;" horiz-adv-x="872" 
d="M175 656l100 174q13 21 36.5 27.5t45.5 -5.5q22 -13 28 -37t-6 -45l-100 -174q-13 -21 -36.5 -27.5t-45.5 5.5q-22 13 -28 37t6 45zM475 656l100 174q13 21 36.5 27.5t45.5 -5.5q22 -13 28 -37t-6 -45l-100 -174q-13 -21 -36.5 -27.5t-45.5 5.5q-22 13 -28 37t6 45z" />
    <glyph glyph-name="quotedblbase" unicode="&#x201e;" horiz-adv-x="872" 
d="M175 -44l100 174q13 21 36.5 27.5t45.5 -5.5q22 -13 28 -37t-6 -45l-100 -174q-13 -21 -36.5 -27.5t-45.5 5.5q-22 13 -28 37t6 45zM475 -44l100 174q13 21 36.5 27.5t45.5 -5.5q22 -13 28 -37t-6 -45l-100 -174q-13 -21 -36.5 -27.5t-45.5 5.5q-22 13 -28 37t6 45z" />
    <glyph glyph-name="dagger" unicode="&#x2020;" horiz-adv-x="720" 
d="M510 640h-90v-190q0 -25 -17.5 -42.5t-42.5 -17.5t-42.5 17.5t-17.5 42.5v190h-90q-25 0 -42.5 17.5t-17.5 42.5t17.5 42.5t42.5 17.5h90v90q0 25 17.5 42.5t42.5 17.5t42.5 -17.5t17.5 -42.5v-90h90q25 0 42.5 -17.5t17.5 -42.5t-17.5 -42.5t-42.5 -17.5z" />
    <glyph glyph-name="daggerdbl" unicode="&#x2021;" horiz-adv-x="720" 
d="M510 640h-90v-130h90q25 0 42.5 -17.5t17.5 -42.5t-17.5 -42.5t-42.5 -17.5h-90v-90q0 -25 -17.5 -42.5t-42.5 -17.5t-42.5 17.5t-17.5 42.5v90h-90q-25 0 -42.5 17.5t-17.5 42.5t17.5 42.5t42.5 17.5h90v130h-90q-25 0 -42.5 17.5t-17.5 42.5t17.5 42.5t42.5 17.5h90v90
q0 25 17.5 42.5t42.5 17.5t42.5 -17.5t17.5 -42.5v-90h90q25 0 42.5 -17.5t17.5 -42.5t-17.5 -42.5t-42.5 -17.5z" />
    <glyph glyph-name="bullet" unicode="&#x2022;" 
d="M207 357q-17 18 -17 43t17 42q18 18 43 18t42 -18q18 -17 18 -42t-18 -43q-17 -17 -42 -17t-43 17z" />
    <glyph glyph-name="ellipsis" unicode="&#x2026;" horiz-adv-x="1000" 
d="M457 57q-17 18 -17 43t17 42q18 18 43 18t42 -18q18 -17 18 -42t-18 -43q-17 -17 -42 -17t-43 17zM707 57q-17 18 -17 43t17 42q18 18 43 18t42 -18q18 -17 18 -42t-18 -43q-17 -17 -42 -17t-43 17zM207 57q-17 18 -17 43t17 42q18 18 43 18t42 -18q18 -17 18 -42
t-18 -43q-17 -17 -42 -17t-43 17z" />
    <glyph glyph-name="perthousand" unicode="&#x2030;" horiz-adv-x="1550" 
d="M1031 51q-61 61 -61 149q0 87 61 148q62 62 149 62q86 0 148 -62t62 -148q0 -87 -62 -149q-61 -61 -148 -61q-88 0 -149 61zM1116 264q-26 -26 -26 -64t26 -64t64 -26t64 26t26 64t-26 64t-64 26t-64 -26zM231 451q-61 61 -61 149q0 87 61 148q62 62 149 62q86 0 148 -62
t62 -148q0 -87 -62 -149q-61 -61 -148 -61q-88 0 -149 61zM316 664q-26 -26 -26 -64t26 -64t64 -26t64 26t26 64t-26 64t-64 26t-64 -26zM631 51q-61 61 -61 149q0 87 61 148q62 62 149 62q86 0 148 -62t62 -148q0 -87 -62 -149q-61 -61 -148 -61q-88 0 -149 61zM716 264
q-26 -26 -26 -64t26 -64t64 -26t64 26t26 64t-26 64t-64 26t-64 -26zM237 142l601 601q20 17 42 17q39 0 54.5 -37t-12.5 -66l-600 -600q-17 -17 -42 -17t-43 17q-17 18 -17 43t17 42z" />
    <glyph glyph-name="guilsinglleft" unicode="&#x2039;" horiz-adv-x="652" 
d="M167 442l213 213q17 17 42 17t42 -17q18 -18 18 -43t-18 -42l-170 -170l170 -170q18 -17 18 -42t-18 -43q-17 -17 -42 -17t-42 17l-213 213q-17 17 -17 42t17 42z" />
    <glyph glyph-name="guilsinglright" unicode="&#x203a;" horiz-adv-x="652" 
d="M272 655l213 -213q17 -17 17 -42t-17 -42l-213 -213q-17 -17 -42 -17t-42 17q-18 18 -18 43t18 42l170 170l-170 170q-18 17 -18 42t18 43q17 17 42 17t42 -17z" />
    <glyph glyph-name="Euro" unicode="&#x20ac;" horiz-adv-x="1052" 
d="M620 260h-195q34 -47 85 -73.5t110 -26.5q99 0 169 70q18 18 43 18t42 -18q18 -17 18 -42t-18 -43q-105 -105 -254 -105q-112 0 -201 61q-89 62 -131 159h-68q-25 0 -42.5 17.5t-17.5 42.5t17.5 42.5t42.5 17.5h40v40h-40q-25 0 -42.5 17.5t-17.5 42.5t17.5 42.5
t42.5 17.5h68q42 97 131 159q89 61 201 61q141 0 247 -100q25 -22 25 -48q0 -25 -17.5 -42.5t-42.5 -17.5q-26 0 -43 17q-69 71 -169 71q-58 0 -109.5 -26.5t-85.5 -73.5h195q25 0 42.5 -17.5t17.5 -42.5t-17.5 -42.5t-42.5 -17.5h-239q-1 -5 -1 -20q0 -16 1 -20h239
q25 0 42.5 -17.5t17.5 -42.5t-17.5 -42.5t-42.5 -17.5z" />
    <glyph glyph-name="afii61352" unicode="&#x2116;" horiz-adv-x="1680" 
d="M1151 401q-61 61 -61 149q0 87 61 148q62 62 149 62q86 0 148 -62t62 -148q0 -87 -62 -149q-61 -61 -148 -61q-88 0 -149 61zM1236 614q-26 -26 -26 -64t26 -64t64 -26t64 26t26 64t-26 64t-64 26t-64 -26zM1450 90h-300q-25 0 -42.5 17.5t-17.5 42.5t17.5 42.5
t42.5 17.5h300q25 0 42.5 -17.5t17.5 -42.5t-17.5 -42.5t-42.5 -17.5zM190 100v600q0 25 17.5 42.5t42.5 17.5q22 0 42 -17l498 -498v455q0 25 17.5 42.5t42.5 17.5t42.5 -17.5t17.5 -42.5v-600q0 -25 -17.5 -42.5t-42.5 -17.5q-26 0 -43 17l-497 498v-455
q0 -25 -17.5 -42.5t-42.5 -17.5t-42.5 17.5t-17.5 42.5z" />
    <glyph glyph-name="trademark" unicode="&#x2122;" horiz-adv-x="1180" 
d="M900 550v105l-48 -48q-17 -17 -42 -17t-42 17l-48 48v-105q0 -25 -17.5 -42.5t-42.5 -17.5t-42.5 17.5t-17.5 42.5v250q0 25 17.5 42.5t42.5 17.5q24 0 42 -18l108 -107l108 108q20 17 42 17q25 0 42.5 -17.5t17.5 -42.5v-250q0 -25 -17.5 -42.5t-42.5 -17.5t-42.5 17.5
t-17.5 42.5zM510 740h-90v-190q0 -25 -17.5 -42.5t-42.5 -17.5t-42.5 17.5t-17.5 42.5v190h-90q-25 0 -42.5 17.5t-17.5 42.5t17.5 42.5t42.5 17.5h300q25 0 42.5 -17.5t17.5 -42.5t-17.5 -42.5t-42.5 -17.5z" />
    <glyph glyph-name="NULL" horiz-adv-x="0" 
 />
    <glyph glyph-name="CR" horiz-adv-x="333" 
 />
    <glyph glyph-name="percent" horiz-adv-x="1140" 
d="M227 142l601 601q20 17 42 17q39 0 54.5 -37t-12.5 -66l-600 -600q-17 -17 -42 -17t-43 17q-17 18 -17 43t17 42zM221 451q-61 61 -61 149q0 87 61 148q62 62 149 62q86 0 148 -62t62 -148q0 -87 -62 -149q-61 -61 -148 -61q-88 0 -149 61zM306 664q-26 -26 -26 -64
t26 -64t64 -26t64 26t26 64t-26 64t-64 26t-64 -26zM621 51q-61 61 -61 149q0 87 61 148q62 62 149 62q86 0 148 -62t62 -148q0 -87 -62 -149q-61 -61 -148 -61q-88 0 -149 61zM706 264q-26 -26 -26 -64t26 -64t64 -26t64 26t26 64t-26 64t-64 26t-64 -26z" />
    </font>
</defs>
</svg>
